<svg xmlns="http://www.w3.org/2000/svg" width="17" height="21" viewBox="0 0 17 21">
    <g fill="#99A2CD" fill-rule="nonzero">
        <path d="M4.785 10.633l-1.928-.915-1.016 2.217h-.703c-.593 0-1.074.482-1.074 1.077s.481 1.077 1.074 1.077h1.257c.491-.001.938-.288 1.144-.736l1.246-2.72zm-1.719 2.495a.74.74 0 0 1-.674.433H1.138a.556.556 0 0 1 0-1.115h.917a.184.184 0 0 0 .167-.108l.888-1.925.99.47-.72 1.571-.314.674zM8.125 3.587c.682 0 1.296-.412 1.557-1.044.26-.632.116-1.36-.366-1.843A1.682 1.682 0 0 0 7.478.335 1.69 1.69 0 0 0 6.44 1.898a1.688 1.688 0 0 0 1.686 1.689zm0-2.84a1.15 1.15 0 0 1 1.148 1.151A1.15 1.15 0 0 1 8.125 3.05a1.15 1.15 0 0 1-1.149-1.152A1.15 1.15 0 0 1 8.125.746z"/>
        <path d="M2.183 7.543c.327.004.636-.15.83-.415l.035-.046.595-1.308h.995l-1.022 2.24a1.285 1.285 0 0 0 .593 1.675l2.995 1.466v3.069a1.07 1.07 0 0 0 1.069 1.072c.59 0 1.069-.48 1.069-1.072v-3.761c0-.427-.241-.817-.622-1.007l-2.11-1.04.681-1.494.361.366c.234.237.552.372.885.372h.968a1.082 1.082 0 0 0 1.083-1.04 1.098 1.098 0 0 0-.295-.8 1.066 1.066 0 0 0-.773-.335h-.622l-.935-.94a.699.699 0 0 0-.195-.137l-1.56-.728a.697.697 0 0 0-.297-.066H2.747a.721.721 0 0 0-.653.416L1.057 6.317a.696.696 0 0 0 .063.667c.245.346.64.554 1.063.56zM1.53 6.537L2.567 4.25a.207.207 0 0 1 .184-.12h3.16c.027 0 .054.006.078.018l1.555.742c.02.009.037.021.052.036l1.037 1.04c.034.034.08.053.128.053h.755a.555.555 0 0 1 .551.589.567.567 0 0 1-.568.534h-.966a.73.73 0 0 1-.52-.218l-.697-.707a.182.182 0 0 0-.296.054L6.002 8.504a.187.187 0 0 0 .087.247L8.5 9.928c.204.1.333.309.332.537v3.763a.558.558 0 0 1-.552.561.555.555 0 0 1-.551-.561v-3.283a.187.187 0 0 0-.104-.168l-2.164-1.06-1.016-.5a.754.754 0 0 1-.348-.987l.172-.379L5.33 5.518a.188.188 0 0 0-.168-.266H3.427a.184.184 0 0 0-.168.108l-.66 1.456c-.364.486-1.187-.023-1.071-.279h.002z"/>
        <path d="M14.863 9.045v3.638h-4.147v3.119H7.088v3.639H3.46V21h13.476V9.045h-2.073zm1.554 11.435H3.978v-.52h3.628v-3.638h3.629v-3.119h4.146V9.564h1.036V20.48z"/>
    </g>
</svg>
