<?xml version="1.0" encoding="UTF-8"?>
<svg width="20px" height="17px" viewBox="0 0 20 17" version="1.1" xmlns="http://www.w3.org/2000/svg" xmlns:xlink="http://www.w3.org/1999/xlink">
    <!-- Generator: sketchtool 50.2 (55047) - http://www.bohemiancoding.com/sketch -->
    <title>D54C16A2-9682-4C23-9F8B-470ABC8FDFE3</title>
    <desc>Created with sketchtool.</desc>
    <defs></defs>
    <g id="Page-1" stroke="none" stroke-width="1" fill="none" fill-rule="evenodd">
        <g id="vacancy_candidates" transform="translate(-630.000000, -228.000000)" fill="#8757BF">
            <g id="Group-31" transform="translate(236.000000, 187.000000)">
                <g id="Group-28" transform="translate(391.000000, 39.000000)">
                    <g id="Group">
                        <path d="M21.887064,17.34159 C22.038024,17.34159 22.161528,17.465091 22.161528,17.616585 L22.161528,18.185307 C22.161528,18.336234 22.038024,18.459588 21.887064,18.459588 L3.274296,18.459588 C3.123312,18.459588 2.999808,18.336234 2.999808,18.185307 L2.999808,17.616585 C2.999808,17.465511 3.123312,17.34159 3.274296,17.34159 L3.463536,17.34159 C3.576144,17.34159 3.631896,17.324937 3.631896,17.22231 L3.631896,6.399708 C3.631896,6.128241 3.85428,5.905746 4.126008,5.905746 L8.253936,5.905746 C8.370576,5.905746 8.357016,5.728212 8.357016,5.728212 L8.357016,3.732225 C8.357016,3.724371 8.356848,3.652698 8.277096,3.652698 C8.126136,3.652698 8.002632,3.528924 8.002632,3.377997 L8.002632,2.891175 C8.002632,2.739954 8.126136,2.6166 8.277096,2.6166 L17.152128,2.6166 C17.303112,2.6166 17.426616,2.739954 17.426616,2.891175 L17.426616,3.377997 C17.426616,3.528924 17.303112,3.652698 17.152128,3.652698 C17.083824,3.652698 17.072304,3.675651 17.072304,3.696105 L17.072304,5.775819 C17.072304,5.775819 17.06496,5.905746 17.202312,5.905746 L21.024456,5.905746 C21.296184,5.905746 21.518544,6.128241 21.518544,6.399708 L21.518544,17.187723 C21.518544,17.187723 21.518544,17.34159 21.648936,17.34159 L21.887064,17.34159 Z M13.763856,8.271249 C13.643016,8.271249 13.544208,8.370096 13.544208,8.490783 L13.544208,10.132563 C13.544208,10.253376 13.643016,10.35237 13.763856,10.35237 L15.406584,10.35237 C15.527352,10.35237 15.626136,10.253376 15.626136,10.132563 L15.626136,8.490783 C15.626136,8.370096 15.527352,8.271249 15.406584,8.271249 L13.763856,8.271249 Z M13.544208,7.252812 C13.544208,7.373919 13.643016,7.472346 13.763856,7.472346 L15.406584,7.472346 C15.527352,7.472346 15.626136,7.373919 15.626136,7.252812 L15.626136,5.611032 C15.626136,5.490345 15.527352,5.391918 15.406584,5.391918 L13.763856,5.391918 C13.643016,5.391918 13.544208,5.490345 13.544208,5.611032 L13.544208,7.252812 Z M13.763856,11.049486 C13.643016,11.049486 13.544208,11.148207 13.544208,11.2686 L13.544208,12.910653 C13.544208,13.031487 13.643016,13.130481 13.763856,13.130481 L15.406584,13.130481 C15.527352,13.130481 15.626136,13.031487 15.626136,12.910653 L15.626136,11.2686 C15.626136,11.148207 15.527352,11.049486 15.406584,11.049486 L13.763856,11.049486 Z M14.007576,14.350245 L11.46396,14.350245 C11.343192,14.350245 11.244312,14.448819 11.244312,14.569653 L11.244312,17.111829 C11.244312,17.23239 11.343192,17.33151 11.46396,17.33151 L14.007576,17.33151 C14.12832,17.33151 14.2272,17.23239 14.2272,17.111829 L14.2272,14.569653 C14.2272,14.448819 14.12832,14.350245 14.007576,14.350245 Z M11.887848,7.252812 L11.887848,5.611032 C11.887848,5.490345 11.789064,5.391918 11.668296,5.391918 L10.025472,5.391918 C9.904632,5.391918 9.805848,5.490345 9.805848,5.611032 L9.805848,7.252812 C9.805848,7.373919 9.904632,7.472346 10.025472,7.472346 L11.668296,7.472346 C11.789064,7.472346 11.887848,7.373919 11.887848,7.252812 Z M10.025472,8.271249 C9.904632,8.271249 9.805848,8.370096 9.805848,8.490783 L9.805848,10.132563 C9.805848,10.253376 9.904632,10.35237 10.025472,10.35237 L11.668296,10.35237 C11.789064,10.35237 11.887848,10.253376 11.887848,10.132563 L11.887848,8.490783 C11.887848,8.370096 11.789064,8.271249 11.668296,8.271249 L10.025472,8.271249 Z M10.025472,11.049486 C9.904632,11.049486 9.805848,11.148207 9.805848,11.2686 L9.805848,12.910653 C9.805848,13.031487 9.904632,13.130481 10.025472,13.130481 L11.668296,13.130481 C11.789064,13.130481 11.887848,13.031487 11.887848,12.910653 L11.887848,11.2686 C11.887848,11.148207 11.789064,11.049486 11.668296,11.049486 L10.025472,11.049486 Z M17.719128,8.440236 L17.719128,10.082016 C17.719128,10.202703 17.817912,10.301277 17.938656,10.301277 L19.58148,10.301277 C19.702248,10.301277 19.801128,10.202703 19.801128,10.082016 L19.801128,8.440236 C19.801128,8.319276 19.702248,8.220282 19.58148,8.220282 L17.938656,8.220282 C17.817912,8.220282 17.719128,8.319276 17.719128,8.440236 Z M17.719128,11.319714 L17.719128,12.9612 C17.719128,13.082454 17.817912,13.181028 17.938656,13.181028 L19.58148,13.181028 C19.702248,13.181028 19.801128,13.082454 19.801128,12.9612 L19.801128,11.319714 C19.801128,11.199153 19.702248,11.100453 19.58148,11.100453 L17.938656,11.100453 C17.817912,11.100453 17.719128,11.199153 17.719128,11.319714 Z M17.719128,14.098098 L17.719128,15.739731 C17.719128,15.860418 17.817912,15.959412 17.938656,15.959412 L19.58148,15.959412 C19.702248,15.959412 19.801128,15.860418 19.801128,15.739731 L19.801128,14.098098 C19.801128,13.977117 19.702248,13.87869 19.58148,13.87869 L17.938656,13.87869 C17.817912,13.87869 17.719128,13.977117 17.719128,14.098098 Z M5.349336,8.440236 L5.349336,10.082016 C5.349336,10.202703 5.448216,10.301277 5.56896,10.301277 L7.21188,10.301277 C7.332552,10.301277 7.431336,10.202703 7.431336,10.082016 L7.431336,8.440236 C7.431336,8.319276 7.332552,8.220282 7.21188,8.220282 L5.56896,8.220282 C5.448216,8.220282 5.349336,8.319276 5.349336,8.440236 Z M5.349336,11.319714 L5.349336,12.9612 C5.349336,13.082454 5.448216,13.181028 5.56896,13.181028 L7.21188,13.181028 C7.332552,13.181028 7.431336,13.082454 7.431336,12.9612 L7.431336,11.319714 C7.431336,11.199153 7.332552,11.100453 7.21188,11.100453 L5.56896,11.100453 C5.448216,11.100453 5.349336,11.199153 5.349336,11.319714 Z M5.349336,14.098098 L5.349336,15.739731 C5.349336,15.860418 5.448216,15.959412 5.56896,15.959412 L7.21188,15.959412 C7.332552,15.959412 7.431336,15.860418 7.431336,15.739731 L7.431336,14.098098 C7.431336,13.977117 7.332552,13.87869 7.21188,13.87869 L5.56896,13.87869 C5.448216,13.87869 5.349336,13.977117 5.349336,14.098098 Z" id="Combined-shape-2954"></path>
                    </g>
                </g>
            </g>
        </g>
    </g>
</svg>