<?xml version="1.0" encoding="UTF-8"?>
<svg width="18px" height="18px" viewBox="0 0 18 18" version="1.1" xmlns="http://www.w3.org/2000/svg" xmlns:xlink="http://www.w3.org/1999/xlink">
    <!-- Generator: sketchtool 50.2 (55047) - http://www.bohemiancoding.com/sketch -->
    <title>89B3BEA1-09C3-44A3-8ACE-991C017A921E</title>
    <desc>Created with sketchtool.</desc>
    <defs></defs>
    <g id="Page-1" stroke="none" stroke-width="1" fill="none" fill-rule="evenodd">
        <g id="vacancy_main" transform="translate(-599.000000, -323.000000)" fill="#8757BF" fill-rule="nonzero">
            <g id="Group-3" transform="translate(205.000000, 208.000000)">
                <g id="form_vacancy">
                    <g id="Group-5" transform="translate(394.000000, 115.000000)">
                        <path d="M9,0 C4.03200007,0 0,4.03200007 0,9 C0,13.9679999 4.03200007,18 9,18 C13.9679999,18 18,13.9679999 18,9 C18,4.03200007 13.9679999,0 9,0 Z M9,3.19885713 C9.31885709,3.19885713 9.57600001,3.45600006 9.57600001,3.77485714 L9.57600001,8.76342846 L12.6925713,11.88 C12.9188571,12.1062856 12.9188571,12.4662857 12.6925713,12.6925713 C12.4662857,12.9188571 12.1062856,12.9188571 11.8697141,12.6925713 L8.67085722,9.48342848 C8.53714291,9.34971417 8.44457138,9.22628555 8.4137143,9 L8.4137143,3.77485714 C8.4137143,3.45600006 8.68114291,3.19885713 9,3.19885713 Z" id="Shape"></path>
                    </g>
                </g>
            </g>
        </g>
    </g>
</svg>