<?xml version="1.0" encoding="UTF-8"?>
<svg width="20px" height="20px" viewBox="0 0 20 20" version="1.1" xmlns="http://www.w3.org/2000/svg" xmlns:xlink="http://www.w3.org/1999/xlink">
    <!-- Generator: sketchtool 50.2 (55047) - http://www.bohemiancoding.com/sketch -->
    <title>56310CDB-1540-4C73-BD7C-04AE902F26FA</title>
    <desc>Created with sketchtool.</desc>
    <defs></defs>
    <g id="Symbols" stroke="none" stroke-width="1" fill="none" fill-rule="evenodd">
        <g id="icon/expirience" fill="#8757BF" fill-rule="nonzero">
            <g id="Shape">
                <g>
                    <path d="M8.99999536,13 C7.34406185,12.9999954 6.00130073,11.6582857 6.00000094,10.0023548 C5.99870116,8.34642389 7.33935434,7.00260797 8.9952858,7.00000379 C10.6512173,6.99739961 11.9960905,8.33699217 11.999999,9.992919 C12.001304,11.65146 10.6585369,12.9973948 8.99999536,13 Z"></path>
                    <path d="M2,7 C0.8954305,7 0,6.1045695 0,5 C0,3.8954305 0.8954305,3 2,3 C3.1045695,3 4,3.8954305 4,5 C3.99865773,6.10401304 3.10401304,6.99865773 2,7 Z"></path>
                    <path d="M5,16 C3.8954305,16 3,15.1045695 3,14 C3,12.8954305 3.8954305,12 5,12 C6.1045695,12 7,12.8954305 7,14 C6.99865773,15.104013 6.10401304,15.9986577 5,16 Z"></path>
                    <path d="M16,20 C14.8954305,20 14,19.1045695 14,18 C14,16.8954305 14.8954305,16 16,16 C17.1045695,16 18,16.8954305 18,18 C17.9986577,19.104013 17.104013,19.9986577 16,20 Z"></path>
                    <path d="M18,9 C16.8954305,9 16,8.1045695 16,7 C16,5.8954305 16.8954305,5 18,5 C19.1045695,5 20,5.8954305 20,7 C19.9986577,8.10401304 19.104013,8.99865773 18,9 Z"></path>
                    <path d="M11,4 C9.8954305,4 9,3.1045695 9,2 C9,0.8954305 9.8954305,0 11,0 C12.1045695,0 13,0.8954305 13,2 C12.9986577,3.10401304 12.104013,3.99865773 11,4 Z"></path>
                    <path d="M12.004564,8.79553144 C11.9819457,8.67164798 12.0452535,8.54823967 12.1532898,8.50561464 L15.6802777,7.01843896 C15.7575345,6.98432188 15.8454533,6.99817817 15.9109158,7.05478831 C15.9763783,7.11139844 16.0094393,7.20216199 15.997645,7.29288921 C15.9858507,7.38361642 15.9309929,7.46052368 15.8537361,7.49464076 L12.3244355,8.98181645 C12.2986423,8.99305532 12.2712232,8.99909339 12.2434882,8.99964218 C12.1288848,9.00629831 12.0271824,8.91941489 12.004564,8.79553144 Z"></path>
                    <path d="M14.732603,17 C14.6478122,17 14.5679697,16.9616793 14.5170952,16.8965662 L11.0528079,12.4127109 C10.9955439,12.3383423 10.9839622,12.2402978 11.0224253,12.1555097 C11.0608884,12.0707217 11.1435529,12.0120714 11.23928,12.001652 C11.335007,11.9912325 11.4292533,12.0306268 11.4865173,12.1049954 L14.9481107,16.5888506 C15.0077482,16.6671857 15.016685,16.7709747 14.9712556,16.8576458 C14.9258261,16.9443169 14.833676,16.9992836 14.732603,17 Z"></path>
                    <path d="M6.26105037,14 C6.15369777,13.9996096 6.05743769,13.9300227 6.01816586,13.8244177 C5.97889403,13.7188127 6.00456129,13.5985699 6.08292979,13.5210198 L7.55766338,12.0730047 C7.66543999,11.9690263 7.83255748,11.9770835 7.93093076,12.0910011 C8.02930403,12.2049187 8.02168113,12.3815583 7.91390454,12.4855367 L6.43917094,13.9252459 C6.39086279,13.9730512 6.32722606,13.9997584 6.26105037,14 Z"></path>
                    <path d="M6.74801746,8.99999254 C6.69899007,8.99958562 6.65115655,8.98387149 6.61046407,8.95480389 L3.10910491,6.48537706 C2.99636608,6.40356976 2.96617243,6.24079169 3.04126207,6.11962713 C3.11635171,5.99846256 3.26898243,5.96367629 3.3842117,6.04146503 L6.88557086,8.51089185 C6.97900512,8.57503035 7.0213582,8.69704556 6.98950347,8.81031188 C6.95764875,8.9235782 6.85924195,9.00087405 6.74801746,8.99999254 Z"></path>
                    <path d="M10.1851281,6.99999436 L10.1427922,6.99999436 C10.0951785,6.98567035 10.0538742,6.94718588 10.0279795,6.89301992 C10.0020848,6.83885395 9.99372439,6.77345096 10.0047403,6.71122063 L10.6360976,3.18577467 C10.6594791,3.05619285 10.7587838,2.97592631 10.857901,3.00649433 C10.9570181,3.03706235 11.018414,3.16688944 10.9950325,3.29647127 L10.3655159,6.81469789 C10.3457794,6.92388767 10.2709457,7.00075774 10.1851281,6.99999436 Z"></path>
                </g>
            </g>
        </g>
    </g>
</svg>