<?xml version="1.0" encoding="UTF-8"?>
<svg width="14px" height="21px" viewBox="0 0 14 21" version="1.1" xmlns="http://www.w3.org/2000/svg" xmlns:xlink="http://www.w3.org/1999/xlink">
    <!-- Generator: sketchtool 50.2 (55047) - http://www.bohemiancoding.com/sketch -->
    <title>4E96A86F-EF0F-4506-BAE4-E4FB48C7D8FF</title>
    <desc>Created with sketchtool.</desc>
    <defs></defs>
    <g id="Symbols" stroke="none" stroke-width="1" fill="none" fill-rule="evenodd">
        <g id="icon/vacancy/pin" transform="translate(-3.000000, -2.000000)" fill="#8757BF">
            <path d="M9.93978,2.797752 C13.66456,2.797752 16.69484,5.706096 16.69484,9.281112 C16.69484,10.721256 15.7369,13.068528 13.76628,16.458216 C12.37254,18.855216 11.00158,20.854344 10.9439,20.938128 L9.93978,22.398864 L8.93564,20.938128 C8.87798,20.854344 7.50712,18.855216 6.11328,16.458216 C4.14276,13.068528 3.18472,10.721256 3.18472,9.281112 C3.18472,5.706096 6.2151,2.797752 9.93978,2.797752 Z M9.93978,12.598224 C11.87358,12.598224 13.44126,11.093736 13.44126,9.237072 C13.44126,7.381152 11.87358,5.87664 9.93978,5.87664 C8.00598,5.87664 6.4383,7.381152 6.4383,9.237072 C6.4383,11.093736 8.00598,12.598224 9.93978,12.598224 Z"></path>
        </g>
    </g>
</svg>