<?xml version="1.0" encoding="UTF-8"?>
<svg width="19px" height="16px" viewBox="0 0 19 16" version="1.1" xmlns="http://www.w3.org/2000/svg" xmlns:xlink="http://www.w3.org/1999/xlink">
    <!-- Generator: sketchtool 50.2 (55047) - http://www.bohemiancoding.com/sketch -->
    <title>05AA6C09-BF86-4A77-9CB2-475A48EB2D82</title>
    <desc>Created with sketchtool.</desc>
    <defs></defs>
    <g id="Page-1" stroke="none" stroke-width="1" fill="none" fill-rule="evenodd">
        <g id="vacancy_candidates" transform="translate(-628.000000, -194.000000)" fill="#8757BF">
            <g id="Group-31" transform="translate(236.000000, 187.000000)">
                <g id="Group-27" transform="translate(392.000000, 6.000000)">
                    <g id="icon/sector" transform="translate(0.000000, 1.000000)">
                        <g>
                            <path d="M1.28816244,12.6056393 C1.7916808,12.5709222 2.26009702,12.3618122 2.62707809,12.0018609 L4.3563208,10.2872334 L4.3563208,15.6592682 C4.3563208,15.8487846 4.20014248,16 4.01278074,16 L1.63165501,16 C1.44037456,16 1.28816244,15.8450431 1.28816244,15.6592682 L1.28816244,12.6056393 Z M5.54302433,10.2487748 L7.1785743,11.8702391 C7.56111145,12.2494295 8.06852476,12.4624583 8.6111827,12.4742145 L8.6111827,15.6592682 C8.6111827,15.8487846 8.45498062,16 8.26764263,16 L5.88649315,16 C5.69523645,16 5.54302433,15.8450431 5.54302433,15.6592682 L5.54302433,10.2487748 Z M9.79779123,12.1374014 C9.91884368,12.0597359 10.0320587,11.9710625 10.1374363,11.8665173 L12.8659496,9.16108356 L12.8659496,15.6592682 C12.8659496,15.8487846 12.7098425,16 12.5224808,16 L10.1412838,16 C9.9500746,16 9.79779123,15.8450431 9.79779123,15.6592682 L9.79779123,12.1374014 Z M16.8904627,5.16704041 L16.9411922,5.21727486 C16.9841792,5.2559107 17.0427461,5.3139826 17.1208115,5.37989194 L17.1208115,15.6592682 C17.1208115,15.8487846 16.9646807,16 16.7772477,16 L14.3961219,16 C14.2048415,16 14.0526531,15.8450431 14.0526531,15.6592682 L14.0526531,7.98058362 L16.8904627,5.16704041 Z M18.8383218,0.181836531 C18.9593743,0.305995003 19.0101037,0.479994092 18.9983476,0.70460179 L18.9476182,1.77661813 C18.9124685,2.49260194 18.8773902,3.20486394 18.8461592,3.91692902 C18.8383218,4.0832679 18.8070909,4.29609974 18.6392277,4.46263554 C18.592417,4.50893158 18.5377688,4.54776434 18.4752832,4.58267837 C18.381638,4.63291283 18.2918402,4.656051 18.2020424,4.656051 C17.9873684,4.656051 17.8468175,4.51678872 17.7453585,4.41596534 L16.8904627,3.5722785 L9.33329371,11.065385 C9.14985067,11.2434998 8.91166448,11.343949 8.65409849,11.343949 C8.3964375,11.343949 8.15442759,11.2434998 7.97487952,11.065385 L4.96528803,8.08121008 L1.81516929,11.204667 C1.63557372,11.3825848 1.39745877,11.4834082 1.13979778,11.4834082 C0.882231793,11.4834082 0.640150638,11.3825848 0.460602563,11.204667 L0.281078237,11.0265523 C-0.0936927457,10.6550221 -0.0936927457,10.0551624 0.281078237,9.6836322 L4.28994027,5.71276661 C4.46953584,5.53447465 4.70762704,5.43402543 4.96528803,5.43402543 C5.22287777,5.43402543 5.46488767,5.53447465 5.64448325,5.71276661 L8.65409849,8.69656743 L15.3525479,2.05124368 C15.1573013,1.86174693 14.9621734,1.66833147 14.7708454,1.47471908 L14.4937571,1.19617482 C14.3844608,1.08771092 14.154112,0.859184502 14.3180565,0.507070682 C14.3493112,0.437439539 14.3883558,0.379367639 14.439109,0.328955951 C14.5991348,0.170454517 14.8020763,0.162794304 14.950441,0.154956862 C16.0589841,0.104742095 17.1637035,0.0504116872 18.2723416,1.64313008e-14 L18.3348272,1.64313008e-14 C18.5534199,1.64313008e-14 18.7251068,0.0619906217 18.8383218,0.181836531 Z"></path>
                        </g>
                    </g>
                </g>
            </g>
        </g>
    </g>
</svg>