<?xml version="1.0" encoding="UTF-8"?>
<svg width="20px" height="23px" viewBox="0 0 20 23" version="1.1" xmlns="http://www.w3.org/2000/svg" xmlns:xlink="http://www.w3.org/1999/xlink">
    <!-- Generator: sketchtool 50.2 (55047) - http://www.bohemiancoding.com/sketch -->
    <title>A1AA3746-5E70-42D0-9CC0-5DB154ECE19D</title>
    <desc>Created with sketchtool.</desc>
    <defs></defs>
    <g id="Symbols" stroke="none" stroke-width="1" fill="none" fill-rule="evenodd">
        <g id="Icon/expirience" fill="#8757BF">
            <g>
                <ellipse id="Oval" fill-rule="nonzero" cx="9.61038961" cy="1.97505814" rx="1.76675325" ry="1.81913953"></ellipse>
                <path d="M15.6532468,7.89354651 L12.1864935,4.32373256 C12.065974,4.19963953 11.9106494,4.13572093 11.752987,4.12662791 L11.752987,4.12288372 L7.46753247,4.12288372 L7.46753247,4.12662791 C7.30987013,4.13572093 7.15454545,4.19963953 7.03402597,4.32373256 L3.56753247,7.89354651 C3.30753247,8.16098837 3.30753247,8.59504651 3.56753247,8.86248837 C3.82727273,9.13019767 4.24883117,9.13019767 4.50883117,8.86248837 L7.46753247,5.8157907 L7.46753247,7.95077907 L7.46753247,11.2103605 L7.46753247,17.1443605 C7.46753247,17.6335116 7.85246753,18.0303953 8.32805195,18.0303953 C8.80363636,18.0303953 9.18857143,17.6337791 9.18857143,17.1443605 L9.18857143,11.2103605 L10.0327273,11.2103605 L10.0327273,17.1443605 C10.0327273,17.6335116 10.4176623,18.0303953 10.8932468,18.0303953 C11.3688312,18.0303953 11.7537662,17.6337791 11.7537662,17.1443605 L11.7537662,7.95077907 C11.7537662,7.9497093 11.7535065,7.94917442 11.7535065,7.94810465 L11.7535065,5.81552326 L14.7124675,8.86222093 C14.9724675,9.12993023 15.394026,9.12993023 15.6537662,8.86222093 C15.9132468,8.59504651 15.9132468,8.16098837 15.6532468,7.89354651 Z" id="Shape" fill-rule="nonzero"></path>
                <rect id="Rectangle-43" x="1.55844156" y="21.127907" width="17.6623377" height="1"></rect>
                <polygon id="Triangle-2" transform="translate(0.909091, 21.662791) scale(-1, -1) rotate(90.000000) translate(-0.909091, -21.662791) " points="0.909090909 20.8604651 2.07792208 22.4651163 -0.25974026 22.4651163"></polygon>
                <polygon id="Triangle-2" transform="translate(19.090909, 21.662791) scale(1, -1) rotate(90.000000) translate(-19.090909, -21.662791) " points="19.0909091 20.8604651 20.2597403 22.4651163 17.9220779 22.4651163"></polygon>
            </g>
        </g>
    </g>
</svg>