<?xml version="1.0" encoding="UTF-8"?>
<svg width="19px" height="16px" viewBox="0 0 19 16" version="1.1" xmlns="http://www.w3.org/2000/svg" xmlns:xlink="http://www.w3.org/1999/xlink">
    <!-- Generator: sketchtool 50.2 (55047) - http://www.bohemiancoding.com/sketch -->
    <title>ED7859D9-2719-48E3-8D3D-0216B587DE67</title>
    <desc>Created with sketchtool.</desc>
    <defs></defs>
    <g id="Symbols" stroke="none" stroke-width="1" fill="none" fill-rule="evenodd">
        <g id="icon/statistic/age" fill="#712DC3" fill-rule="nonzero">
            <g transform="translate(0.333333, 0.000000)" id="Shape">
                <path d="M3.7962223,15.9342464 C3.9877079,15.9342464 4.14265594,15.7753249 4.14265594,15.5789294 L4.14265594,11.7894647 C4.14265594,11.5930692 3.9877079,11.4341478 3.7962223,11.4341478 L0.34643364,11.4341478 C0.15494786,11.4341478 0,11.5930692 0,11.7894647 L0,15.5789294 C0,15.7753249 0.15494786,15.9342463 0.34643364,15.9342463 L3.7962223,15.9342463 Z"></path>
                <path d="M8.41556244,15.9342464 C8.60704804,15.9342464 8.7619957,15.7753249 8.7619957,15.5789294 L8.7619957,8 C8.7619957,7.80360451 8.60704804,7.64468384 8.41556244,7.64468384 L4.9654354,7.64468384 C4.7739498,7.64468384 4.61900214,7.80360451 4.61900214,8 L4.61900214,15.5789294 C4.61900214,15.7753249 4.7739498,15.9342464 4.9654354,15.9342464 L8.41556244,15.9342464 Z"></path>
                <path d="M13.0345642,15.9342464 C13.2260498,15.9342464 13.3809982,15.7753249 13.3809982,15.5789294 L13.3809982,4.26674751 C13.3809982,4.07035202 13.2260498,3.91143095 13.0345642,3.91143095 L9.58477554,3.91143095 C9.39328994,3.91143095 9.23834228,4.07035202 9.23834228,4.26674751 L9.23834228,15.5789298 C9.23834228,15.7753253 9.39328994,15.9342467 9.58477554,15.9342467 L13.0345642,15.9342467 L13.0345642,15.9342464 Z M9.93120956,4.62206406 L12.6881302,4.62206406 L12.6881302,15.2236125 L9.93120956,15.2236125 L9.93120956,4.62206406 Z"></path>
                <path d="M17.653566,15.9342464 C17.8450516,15.9342464 18,15.7753249 18,15.5789294 L18,0.421070974 C18,0.224675303 17.8450516,0.0657544205 17.653566,0.0657544205 L14.2037781,0.0657544205 C14.0122925,0.0657544205 13.8573441,0.224675303 13.8573441,0.421070974 L13.8573441,15.5789298 C13.8573441,15.7753253 14.0122925,15.9342467 14.2037781,15.9342467 L17.653566,15.9342467 L17.653566,15.9342464 Z M14.5502121,0.776387344 L17.3071335,0.776387344 L17.3071335,15.2236123 L14.5502121,15.2236123 L14.5502121,0.776387344 Z"></path>
            </g>
        </g>
    </g>
</svg>