<?xml version="1.0" encoding="UTF-8"?>
<svg width="36px" height="34px" viewBox="0 0 36 34" version="1.1" xmlns="http://www.w3.org/2000/svg" xmlns:xlink="http://www.w3.org/1999/xlink">
    <!-- Generator: sketchtool 50.2 (55047) - http://www.bohemiancoding.com/sketch -->
    <title>ADF372DB-8443-433C-A9B3-1F30C9CDB6E6</title>
    <desc>Created with sketchtool.</desc>
    <defs></defs>
    <g id="Page-1" stroke="none" stroke-width="1" fill="none" fill-rule="evenodd">
        <g id="company_assetment_newnavigation" transform="translate(-264.000000, -1652.000000)">
            <g id="icon/-info-/-candidtes" transform="translate(264.000000, 1652.000000)">
                <polygon id="Shape" fill="#712DC3" fill-rule="nonzero" points="28 11.1053105 17.0013125 8 6 11.1053105 7.21274311 11.7560756 9.78260351 13.1305131 11.7382174 14.1809181 16.5865648 16.7785779 17.0013125 17 17.4134352 16.7785779 22.0885336 14.2727273 23.8446486 13.3330333 26.7846319 11.7560756"></polygon>
                <path d="M19.7682581,17.2656268 L17.6736334,18.301414 L15.5790087,17.2656268 L12.0738266,15.5317545 L11,15 L11,17.2656268 L11.0053028,17.2656268 C10.9522744,17.9662322 11.3102166,18.7122006 12.2249577,19.3372011 C15.5816601,21.6255094 19.7682581,21.4818601 22.7378526,19.3372011 C23.6419881,18.6844788 24.0370502,17.9687524 23.9972788,17.2656268 L23.9999303,17.2656268 L23.9999303,15.1688509 L23.0772348,15.6250005 L19.7682581,17.2656268 Z" id="Shape" fill="#712DC3" fill-rule="nonzero"></path>
                <polygon id="Shape" fill="#712DC3" fill-rule="nonzero" points="28 13 27 15.4987355 28 18 29 15.4987355"></polygon>
                <path d="M32.0117316,1 L3.98826836,1 C2.34039225,1 1,2.34561756 1,3.99996941 L1,23.9997038 C1,25.6540556 2.34039225,27.0000067 3.98826836,27.0000067 L7.04296658,27.0000067 L7.04296658,31.999968 C7.04296658,32.8916365 8.12027281,33.3324685 8.74321509,32.7067368 L14.4279203,27.0000067 L32.0117316,27.0000067 C33.6595336,27.0000067 35,25.6540556 35,23.9997038 L35,3.99996941 C35,2.34561756 33.6595336,1 32.0117316,1 Z" id="Shape-sp-4242-1-0" stroke="#712DC3"></path>
            </g>
        </g>
    </g>
</svg>