<?xml version="1.0" encoding="UTF-8"?>
<svg width="18px" height="23px" viewBox="0 0 18 23" version="1.1" xmlns="http://www.w3.org/2000/svg" xmlns:xlink="http://www.w3.org/1999/xlink">
    <!-- Generator: sketchtool 50.2 (55047) - http://www.bohemiancoding.com/sketch -->
    <title>CB74352E-A81E-47A3-B6D4-5755383A2673</title>
    <desc>Created with sketchtool.</desc>
    <defs></defs>
    <g id="Symbols" stroke="none" stroke-width="1" fill="none" fill-rule="evenodd">
        <g id="icon/statistic/ceo" transform="translate(-1.000000, -1.000000)" fill="#712DC3">
            <path d="M10.00094,10.628075 C7.51696,10.628075 5.59156,7.8646 5.59156,5.48735 C5.59156,3.060875 7.56938,1.086775 10.00094,1.086775 C12.4315,1.086775 14.40864,3.060875 14.40864,5.48735 C14.40864,7.8646 12.48324,10.628075 10.00094,10.628075 Z M10.00094,2.66375 C8.44028,2.66375 7.17136,3.930175 7.17136,5.48735 C7.17136,7.091475 8.47664,9.051325 10.00094,9.051325 C11.52364,9.051325 12.82884,7.091475 12.82884,5.48735 C12.82884,3.930175 11.56074,2.66375 10.00094,2.66375 Z M16.84238,15.7982 C17.9771,15.838275 18.88882,16.765675 18.88882,17.90745 L18.88882,21.796 C18.88882,22.96315 17.93694,23.9128 16.76744,23.9128 L3.23168,23.9128 C2.0621,23.9128 1.11112,22.96315 1.11112,21.796 L1.11112,17.90745 C1.11112,16.765225 2.0229,15.83805 3.15844,15.797975 L3.15844,12.924975 C3.15844,11.053925 4.18368,9.425325 5.70176,8.5587 C5.69634,8.630825 5.68868,8.70205 5.68868,8.775075 C5.68868,10.097825 7.63482,13.084375 8.91222,14.902875 L9.4361,12.338625 L8.88048,11.7841 C8.81416,11.717975 8.81416,11.61045 8.88042,11.54435 L9.09586,11.329075 C9.22872,11.196175 9.40898,11.1216 9.5969,11.1216 L10.40318,11.1216 C10.5911,11.1216 10.77128,11.196175 10.90414,11.329075 L11.11958,11.54435 C11.18592,11.61045 11.18592,11.717975 11.11958,11.7841 L10.56396,12.338625 L11.08758,14.902875 C12.36518,13.0848 14.31132,10.097825 14.31132,8.775075 C14.31132,8.701825 14.30358,8.6306 14.29912,8.5587 C15.81726,9.42555 16.84238,11.054375 16.84238,12.924975 L16.84238,15.7982 Z M17.3091,21.796 L17.3091,17.90745 C17.3091,17.609375 17.06706,17.367175 16.76764,17.367175 L3.23194,17.367175 C2.93342,17.367175 2.6911,17.609375 2.6911,17.90745 L2.6911,21.796 C2.6911,22.09385 2.93342,22.33605 3.23194,22.33605 L16.76764,22.33605 C17.06706,22.33605 17.3091,22.09385 17.3091,21.796 Z M7.31798,18.695025 C6.68614,18.695025 6.19494,19.07525 6.1948,19.856625 C6.1948,20.560075 6.61276,21.00305 7.32246,21.00305 C7.50108,21.00305 7.69376,20.974575 7.84518,20.93405 C7.88202,20.92425 7.92128,20.930275 7.9535,20.950525 C7.9857,20.97055 8.00822,21.003275 8.01548,21.04045 L8.08472,21.39775 C8.09788,21.465425 8.05882,21.5322 7.99302,21.5538 C7.8199,21.610575 7.5428,21.659975 7.20304,21.659975 C5.98646,21.659975 5.36018,20.904225 5.36018,19.9038 C5.36018,18.705275 6.21636,18.0381 7.28082,18.0381 C7.60234,18.0381 7.8639,18.088875 8.03012,18.145625 C8.0978,18.168775 8.13626,18.240025 8.11848,18.30925 L8.02368,18.678125 C8.01432,18.714625 7.99038,18.7458 7.95736,18.76405 C7.92432,18.7823 7.8852,18.7863 7.84926,18.77495 C7.70542,18.729325 7.52788,18.695025 7.31798,18.695025 Z M9.42858,20.12285 L9.42858,20.9563 L10.73772,20.9563 C10.81354,20.9563 10.87498,21.01775 10.87498,21.09345 L10.87498,21.470775 C10.87498,21.54645 10.81354,21.607675 10.73772,21.607675 L8.76662,21.607675 C8.6908,21.607675 8.62936,21.54645 8.62936,21.470775 L8.62936,18.232675 C8.62936,18.156975 8.6908,18.095775 8.76662,18.095775 L10.66426,18.095775 C10.74002,18.095775 10.80146,18.156975 10.80146,18.232675 L10.80146,18.61 C10.80146,18.685675 10.74002,18.7469 10.66426,18.7469 L9.42858,18.7469 L9.42858,19.476625 L10.58654,19.476625 C10.6623,19.476625 10.72374,19.53785 10.72374,19.613525 L10.72374,19.98595 C10.72374,20.061425 10.66236,20.12285 10.58654,20.12285 L9.42858,20.12285 Z M12.96998,18.038325 C14.05076,18.038325 14.64084,18.845975 14.64078,19.814775 C14.64078,20.96655 13.94124,21.664875 12.91212,21.664875 C11.86848,21.664875 11.25828,20.87795 11.25828,19.87755 C11.25828,18.82505 11.93102,18.038325 12.96998,18.038325 Z M12.9545,21.03445 C13.49236,21.03445 13.8008,20.523775 13.80072,19.841025 C13.80072,19.210375 13.49772,18.668775 12.94916,18.668775 C12.4115,18.668775 12.09832,19.179225 12.09832,19.862175 C12.09832,20.549825 12.4216,21.03445 12.9545,21.03445 Z"></path>
        </g>
    </g>
</svg>