<?xml version="1.0" encoding="UTF-8"?>
<svg width="36px" height="34px" viewBox="0 0 36 34" version="1.1" xmlns="http://www.w3.org/2000/svg" xmlns:xlink="http://www.w3.org/1999/xlink">
    <!-- Generator: sketchtool 50.2 (55047) - http://www.bohemiancoding.com/sketch -->
    <title>CB980EF8-C170-4B08-A688-FD8E8421AAA8</title>
    <desc>Created with sketchtool.</desc>
    <defs></defs>
    <g id="Page-1" stroke="none" stroke-width="1" fill="none" fill-rule="evenodd">
        <g id="company_assetment_newnavigation" transform="translate(-264.000000, -1399.000000)">
            <g id="icon/company" transform="translate(264.000000, 1399.000000)">
                <path d="M32.0117316,1 C33.6595336,1 35,2.34561756 35,3.99996941 L35,23.9997038 C35,25.6540556 33.6595336,27.0000067 32.0117316,27.0000067 L14.4279203,27.0000067 L8.74321509,32.7067368 C8.12027281,33.3324685 7.04296658,32.8916365 7.04296658,31.999968 L7.04296658,27.0000067 L3.98826836,27.0000067 C2.34039225,27.0000067 1,25.6540556 1,23.9997038 L1,3.99996941 C1,2.34561756 2.34039225,1 3.98826836,1 L32.0117316,1 Z" id="Combined-shape-4242" stroke="#712DC3"></path>
                <path d="M23.7994702,19.2771159 C23.9097651,19.2771159 24,19.371699 24,19.4877205 L24,19.9232756 C24,20.0388628 23.9097651,20.1333333 23.7994702,20.1333333 L10.2005473,20.1333333 C10.0902349,20.1333333 10,20.0388628 10,19.9232756 L10,19.4877205 C10,19.3720207 10.0902349,19.2771159 10.2005473,19.2771159 L10.3388105,19.2771159 C10.4210845,19.2771159 10.4618183,19.2643622 10.4618183,19.1857655 L10.4618183,10.8972887 C10.4618183,10.689386 10.6242972,10.5189885 10.822828,10.5189885 L13.8387886,10.5189885 C13.9240085,10.5189885 13.9141012,10.3830243 13.9141012,10.3830243 L13.9141012,8.85440007 C13.9141012,8.84838509 13.9139785,8.79349441 13.8557098,8.79349441 C13.7454149,8.79349441 13.65518,8.69870224 13.65518,8.58311498 L13.65518,8.21028293 C13.65518,8.09447051 13.7454149,8 13.8557098,8 L20.3400154,8 C20.4503278,8 20.5405627,8.09447051 20.5405627,8.21028293 L20.5405627,8.58311498 C20.5405627,8.69870224 20.4503278,8.79349441 20.3400154,8.79349441 C20.2901109,8.79349441 20.2816941,8.81107294 20.2816941,8.82673761 L20.2816941,10.4194841 C20.2816941,10.4194841 20.2763284,10.5189885 20.376681,10.5189885 L23.1692286,10.5189885 C23.3677595,10.5189885 23.5302209,10.689386 23.5302209,10.8972887 L23.5302209,19.1592771 C23.5302209,19.1592771 23.5302209,19.2771159 23.6254883,19.2771159 L23.7994702,19.2771159 Z M17.8644648,12.3306061 C17.7761763,12.3306061 17.7039848,12.406308 17.7039848,12.498736 L17.7039848,13.7560912 C17.7039848,13.8486157 17.7761763,13.9244302 17.8644648,13.9244302 L19.0646802,13.9244302 C19.1529161,13.9244302 19.22509,13.8486157 19.22509,13.7560912 L19.22509,12.498736 C19.22509,12.406308 19.1529161,12.3306061 19.0646802,12.3306061 L17.8644648,12.3306061 Z M17.7039848,11.5506374 C17.7039848,11.643387 17.7761763,11.7187672 17.8644648,11.7187672 L19.0646802,11.7187672 C19.1529161,11.7187672 19.22509,11.643387 19.22509,11.5506374 L19.22509,10.2932822 C19.22509,10.2008542 19.1529161,10.125474 19.0646802,10.125474 L17.8644648,10.125474 C17.7761763,10.125474 17.7039848,10.2008542 17.7039848,10.2932822 L17.7039848,11.5506374 Z M17.8644648,14.4583156 C17.7761763,14.4583156 17.7039848,14.533921 17.7039848,14.6261238 L17.7039848,15.8836881 C17.7039848,15.9762287 17.7761763,16.0520431 17.8644648,16.0520431 L19.0646802,16.0520431 C19.1529161,16.0520431 19.22509,15.9762287 19.22509,15.8836881 L19.22509,14.6261238 C19.22509,14.533921 19.1529161,14.4583156 19.0646802,14.4583156 L17.8644648,14.4583156 Z M18.0425323,16.9861979 L16.1841071,16.9861979 C16.0958711,16.9861979 16.0236271,17.0616907 16.0236271,17.1542313 L16.0236271,19.1011537 C16.0236271,19.1934852 16.0958711,19.2693962 16.1841071,19.2693962 L18.0425323,19.2693962 C18.1307507,19.2693962 18.2029947,19.1934852 18.2029947,19.1011537 L18.2029947,17.1542313 C18.2029947,17.0616907 18.1307507,16.9861979 18.0425323,16.9861979 Z M16.4938095,11.5506374 L16.4938095,10.2932822 C16.4938095,10.2008542 16.4216356,10.125474 16.3333997,10.125474 L15.1331141,10.125474 C15.0448256,10.125474 14.9726517,10.2008542 14.9726517,10.2932822 L14.9726517,11.5506374 C14.9726517,11.643387 15.0448256,11.7187672 15.1331141,11.7187672 L16.3333997,11.7187672 C16.4216356,11.7187672 16.4938095,11.643387 16.4938095,11.5506374 Z M15.1331141,12.3306061 C15.0448256,12.3306061 14.9726517,12.406308 14.9726517,12.498736 L14.9726517,13.7560912 C14.9726517,13.8486157 15.0448256,13.9244302 15.1331141,13.9244302 L16.3333997,13.9244302 C16.4216356,13.9244302 16.4938095,13.8486157 16.4938095,13.7560912 L16.4938095,12.498736 C16.4938095,12.406308 16.4216356,12.3306061 16.3333997,12.3306061 L15.1331141,12.3306061 Z M15.1331141,14.4583156 C15.0448256,14.4583156 14.9726517,14.533921 14.9726517,14.6261238 L14.9726517,15.8836881 C14.9726517,15.9762287 15.0448256,16.0520431 15.1331141,16.0520431 L16.3333997,16.0520431 C16.4216356,16.0520431 16.4938095,15.9762287 16.4938095,15.8836881 L16.4938095,14.6261238 C16.4938095,14.533921 16.4216356,14.4583156 16.3333997,14.4583156 L15.1331141,14.4583156 Z M20.7542788,12.4600246 L20.7542788,13.7173799 C20.7542788,13.8098079 20.8264527,13.8853007 20.9146711,13.8853007 L22.1149567,13.8853007 C22.2031926,13.8853007 22.2754367,13.8098079 22.2754367,13.7173799 L22.2754367,12.4600246 C22.2754367,12.3673876 22.2031926,12.2915731 22.1149567,12.2915731 L20.9146711,12.2915731 C20.8264527,12.2915731 20.7542788,12.3673876 20.7542788,12.4600246 Z M20.7542788,14.6652694 L20.7542788,15.9223995 C20.7542788,16.0152617 20.8264527,16.0907545 20.9146711,16.0907545 L22.1149567,16.0907545 C22.2031926,16.0907545 22.2754367,16.0152617 22.2754367,15.9223995 L22.2754367,14.6652694 C22.2754367,14.5729379 22.2031926,14.4973486 22.1149567,14.4973486 L20.9146711,14.4973486 C20.8264527,14.4973486 20.7542788,14.5729379 20.7542788,14.6652694 Z M20.7542788,16.7930915 L20.7542788,18.0503341 C20.7542788,18.1427621 20.8264527,18.2185765 20.9146711,18.2185765 L22.1149567,18.2185765 C22.2031926,18.2185765 22.2754367,18.1427621 22.2754367,18.0503341 L22.2754367,16.7930915 C22.2754367,16.7004383 22.2031926,16.6250581 22.1149567,16.6250581 L20.9146711,16.6250581 C20.8264527,16.6250581 20.7542788,16.7004383 20.7542788,16.7930915 Z M11.71662,12.4600246 L11.71662,13.7173799 C11.71662,13.8098079 11.788864,13.8853007 11.8770824,13.8853007 L13.0774381,13.8853007 C13.1656039,13.8853007 13.2377778,13.8098079 13.2377778,13.7173799 L13.2377778,12.4600246 C13.2377778,12.3673876 13.1656039,12.2915731 13.0774381,12.2915731 L11.8770824,12.2915731 C11.788864,12.2915731 11.71662,12.3673876 11.71662,12.4600246 Z M11.71662,14.6652694 L11.71662,15.9223995 C11.71662,16.0152617 11.788864,16.0907545 11.8770824,16.0907545 L13.0774381,16.0907545 C13.1656039,16.0907545 13.2377778,16.0152617 13.2377778,15.9223995 L13.2377778,14.6652694 C13.2377778,14.5729379 13.1656039,14.4973486 13.0774381,14.4973486 L11.8770824,14.4973486 C11.788864,14.4973486 11.71662,14.5729379 11.71662,14.6652694 Z M11.0754797,17.4642888 L11.0754797,18.8472558 C11.0754797,18.9489266 11.1542914,19.0323224 11.2505296,19.0323224 L12.5600086,19.0323224 C12.6561894,19.0323224 12.7349246,18.9489266 12.7349246,18.8472558 L12.7349246,17.4642888 C12.7349246,17.3623704 12.6561894,17.2794522 12.5600086,17.2794522 L11.2505296,17.2794522 C11.1542914,17.2794522 11.0754797,17.3623704 11.0754797,17.4642888 Z" id="Combined-shape-2954" fill="#712DC3"></path>
            </g>
        </g>
    </g>
</svg>