<?xml version="1.0" encoding="UTF-8"?>
<svg width="20px" height="21px" viewBox="0 0 20 21" version="1.1" xmlns="http://www.w3.org/2000/svg" xmlns:xlink="http://www.w3.org/1999/xlink">
    <!-- Generator: sketchtool 50.2 (55047) - http://www.bohemiancoding.com/sketch -->
    <title>8BD0193C-7D08-48CC-A8EF-32B0E263F81F</title>
    <desc>Created with sketchtool.</desc>
    <defs></defs>
    <g id="Symbols" stroke="none" stroke-width="1" fill="none" fill-rule="evenodd">
        <g id="icon/statistic/date" transform="translate(-2.000000, -2.000000)" fill="#712DC3">
            <path d="M20.148288,4.39593024 C21.117072,4.42573248 21.913032,5.24811456 21.913032,6.2589696 L21.913032,21.0045139 C21.913032,22.0324416 21.097944,22.8799334 20.095608,22.8799334 L3.904248,22.8799334 C2.90052,22.8799334 2.086896,22.0341389 2.086896,21.0045139 L2.086896,6.2589696 C2.086896,5.24811456 2.882928,4.42573248 3.85164,4.39593024 L3.85164,6.91202304 C3.85164,8.04917568 4.750944,8.96570688 5.859312,8.96570688 L7.12608,8.96570688 C8.234448,8.96570688 9.145656,8.04917568 9.145656,6.91202304 L9.145656,4.38676992 L14.854272,4.38676992 L14.854272,6.91202304 C14.854272,8.04917568 15.76548,8.96570688 16.87404,8.96570688 L18.140568,8.96570688 C19.248936,8.96570688 20.148288,8.04917568 20.148288,6.91202304 L20.148288,4.39593024 Z M9.249408,13.5550771 L9.249408,15.2023622 C9.249408,15.4632691 9.043368,15.6745805 8.789184,15.6745805 L7.1832,15.6745805 C6.92928,15.6745805 6.72324,15.4632691 6.72324,15.2023622 L6.72324,13.5550771 C6.72324,13.2945696 6.92928,13.0835078 7.1832,13.0835078 L8.789184,13.0835078 C9.043368,13.0835078 9.249408,13.2945696 9.249408,13.5550771 Z M13.262952,13.5550771 L13.262952,15.2023622 C13.262952,15.4632691 13.056912,15.6745805 12.803184,15.6745805 L11.197008,15.6745805 C10.943088,15.6745805 10.737048,15.4632691 10.737048,15.2023622 L10.737048,13.5550771 C10.737048,13.2945696 10.943088,13.0835078 11.197008,13.0835078 L12.803184,13.0835078 C13.056912,13.0835078 13.262952,13.2945696 13.262952,13.5550771 Z M17.276688,13.5550771 L17.276688,15.2023622 C17.276688,15.4632691 17.0706,15.6745805 16.816728,15.6745805 L15.210744,15.6745805 C14.95656,15.6745805 14.75052,15.4632691 14.75052,15.2023622 L14.75052,13.5550771 C14.75052,13.2945696 14.95656,13.0835078 15.210744,13.0835078 L16.816728,13.0835078 C17.0706,13.0835078 17.276688,13.2945696 17.276688,13.5550771 Z M9.249408,17.6728781 L9.249408,19.3199635 C9.249408,19.5806707 9.043368,19.7917325 8.789184,19.7917325 L7.1832,19.7917325 C6.92928,19.7917325 6.72324,19.5806707 6.72324,19.3199635 L6.72324,17.6728781 C6.72324,17.4119712 6.92928,17.2010842 7.1832,17.2010842 L8.789184,17.2010842 C9.043368,17.2010842 9.249408,17.4119712 9.249408,17.6728781 Z M13.262952,17.6728781 L13.262952,19.3199635 C13.262952,19.5806707 13.056912,19.7917325 12.803184,19.7917325 L11.197008,19.7917325 C10.943088,19.7917325 10.737048,19.5806707 10.737048,19.3199635 L10.737048,17.6728781 C10.737048,17.4119712 10.943088,17.2010842 11.197008,17.2010842 L12.803184,17.2010842 C13.056912,17.2010842 13.262952,17.4119712 13.262952,17.6728781 Z M17.276688,17.6728781 L17.276688,19.3199635 C17.276688,19.5806707 17.0706,19.7917325 16.81692,19.7917325 L15.210744,19.7917325 C14.95656,19.7917325 14.75052,19.5806707 14.75052,19.3199635 L14.75052,17.6728781 C14.75052,17.4119712 14.95656,17.2010842 15.210744,17.2010842 L16.81692,17.2010842 C17.0706,17.2010842 17.276688,17.4119712 17.276688,17.6728781 Z M19.560048,20.0863104 L19.56,20.0863104 L19.56,12.4696666 C19.56,12.024505 19.208304,11.6634835 18.774336,11.6634835 L5.19096,11.6634835 C4.756992,11.6634835 4.405296,12.024505 4.405296,12.4696666 L4.405296,20.0863104 C4.405296,20.5312474 4.756992,20.8922688 5.19096,20.8922688 L18.774384,20.8922688 C19.208304,20.8922688 19.560048,20.5312474 19.560048,20.0863104 Z M5.854848,7.61681856 C5.474568,7.61681856 5.166312,7.30094976 5.166312,6.91094976 L5.166312,2.78611008 C5.166312,2.3959104 5.474568,2.07981696 5.854848,2.07981696 L7.107672,2.07981696 C7.487904,2.07981696 7.796208,2.3959104 7.796208,2.78611008 L7.796208,6.91094976 C7.796208,7.30094976 7.487904,7.61681856 7.107672,7.61681856 L5.854848,7.61681856 Z M16.857936,7.61681856 C16.477704,7.61681856 16.1694,7.30094976 16.1694,6.91094976 L16.1694,2.78611008 C16.1694,2.3959104 16.477704,2.07981696 16.857936,2.07981696 L18.110688,2.07981696 C18.490776,2.07981696 18.799032,2.3959104 18.799032,2.78611008 L18.799032,6.91094976 C18.799032,7.30094976 18.490776,7.61681856 18.110688,7.61681856 L16.857936,7.61681856 Z"></path>
        </g>
    </g>
</svg>