<?xml version="1.0" encoding="UTF-8"?>
<svg width="15px" height="15px" viewBox="0 0 15 15" version="1.1" xmlns="http://www.w3.org/2000/svg" xmlns:xlink="http://www.w3.org/1999/xlink">
    <!-- Generator: sketchtool 50.2 (55047) - http://www.bohemiancoding.com/sketch -->
    <title>9136DEE4-EF03-4903-BE34-8305E92B4582</title>
    <desc>Created with sketchtool.</desc>
    <defs></defs>
    <g id="Symbols" stroke="none" stroke-width="1" fill="none" fill-rule="evenodd">
        <g id="button/edit/normal" transform="translate(-16.000000, -12.000000)">
            <g id="Rectangle-26" stroke="#8125B8">
                <rect x="0.5" y="0.5" width="91" height="39" rx="5"></rect>
            </g>
            <g id="noun_779218_cc" transform="translate(16.000000, 12.000000)" fill="#8125B8" fill-rule="nonzero">
                <path d="M13.21875,5.66037736 L14.4375,4.33962264 C15.1875,3.67924528 15.1875,2.35849057 14.4375,1.60377358 L13.3125,0.566037736 C12.65625,-0.188679245 11.34375,-0.188679245 10.59375,0.566037736 L9.28125,1.79245283 L0.65625,10.3773585 C0.65625,10.4716981 0.5625,10.5660377 0.5625,10.6603774 L0,14.4339623 C0,14.6226415 0,14.7169811 0.09375,14.9056604 C0.1875,14.9056604 0.375,15 0.46875,15 L4.21875,14.4339623 C4.3125,14.4339623 4.40625,14.4339623 4.5,14.3396226 L13.21875,5.66037736 Z M5.0625,12.3584906 L2.625,9.90566038 L9.65625,2.83018868 L12.09375,5.28301887 L5.0625,12.3584906 Z M4.03125,13.3962264 L1.125,13.8679245 L1.59375,10.9433962 L1.875,10.6603774 L4.3125,13.1132075 L4.03125,13.3962264 Z M13.78125,3.58490566 L12.84375,4.52830189 L10.40625,2.0754717 L11.34375,1.13207547 C11.71875,0.754716981 12.28125,0.754716981 12.75,1.13207547 L13.875,2.16981132 C14.25,2.64150943 14.25,3.20754717 13.78125,3.58490566 Z" id="Shape"></path>
            </g>
        </g>
    </g>
</svg>