<?xml version="1.0" encoding="UTF-8"?>
<svg width="21px" height="20px" viewBox="0 0 21 20" version="1.1" xmlns="http://www.w3.org/2000/svg" xmlns:xlink="http://www.w3.org/1999/xlink">
    <!-- Generator: sketchtool 50.2 (55047) - http://www.bohemiancoding.com/sketch -->
    <title>31A2680F-E2BE-443D-BE02-90B97E71D213</title>
    <desc>Created with sketchtool.</desc>
    <defs></defs>
    <g id="Symbols" stroke="none" stroke-width="1" fill="none" fill-rule="evenodd">
        <g id="icon/statistic/employess" transform="translate(-2.000000, -2.000000)" fill="#712DC3">
            <path d="M14.9026583,5.776464 C14.9269833,3.9762 16.2286333,2.52396 17.8334833,2.52372 C19.4539583,2.52372 20.7668333,4.00212 20.7668333,5.826336 C20.7668333,7.650216 19.4539583,9.128856 17.8334833,9.128856 C17.3898333,9.128856 16.9711333,9.014712 16.5942333,8.81628 C16.4758333,7.53408 15.8274083,6.429192 14.9026583,5.776464 Z M12.9808833,12.538632 C11.3610083,12.538632 10.0470833,11.060232 10.0470833,9.236016 C10.0470833,7.41216 11.3610083,5.93364 12.9808833,5.93364 C14.6008333,5.93364 15.9141583,7.41204 15.9141583,9.235896 C15.9141583,11.059992 14.6008333,12.538632 12.9808833,12.538632 Z M14.2250083,12.763608 C16.2959333,12.763608 17.9807333,14.660904 17.9805083,16.992696 L17.9805083,20.420184 L17.9595333,20.420184 L17.7635333,20.532072 C17.6648083,20.588664 16.0648333,21.47484 13.3046083,21.47484 C11.8911833,21.47484 10.1741833,21.242808 8.19770833,20.547648 L7.98805833,20.473704 L7.98043333,20.420064 L7.98043333,16.992696 C7.98043333,14.660904 9.66523333,12.763608 11.7361583,12.763608 L14.2250083,12.763608 Z M19.0781333,9.354288 C21.1490583,9.354288 22.8338583,11.251128 22.8338583,13.58256 L22.8338583,17.010744 L22.8128833,17.010744 L22.6168833,17.122872 C22.5242583,17.175216 21.1188583,17.953152 18.6802833,18.053952 L18.6802833,16.997904 C18.6802833,14.727648 17.3338333,12.8058 15.4930083,12.189288 C16.1599083,11.468544 16.5815833,10.466712 16.6083583,9.354288 L19.0781333,9.354288 Z M7.83378333,9.129072 C6.21345833,9.129072 4.90043333,7.650672 4.90043333,5.826936 C4.90043333,4.00272 6.21345833,2.52444 7.83378333,2.52444 C9.45328333,2.52444 10.7666083,4.00272 10.7666083,5.826936 C10.7666083,5.889192 10.7614833,5.950608 10.7584333,6.012528 C10.0403583,6.640824 9.53758333,7.563432 9.39385833,8.619264 C8.94165833,8.940672 8.40768333,9.129072 7.83378333,9.129072 Z M10.4681333,12.189288 C8.62685833,12.8058 7.28050833,14.727648 7.27998333,16.997904 L7.27998333,18.032856 C6.05095833,17.952336 4.63600833,17.695296 3.05045833,17.137848 L2.84073333,17.063328 L2.83310833,17.010504 L2.83310833,13.58256 C2.83310833,11.251128 4.51790833,9.354288 6.58883333,9.354288 L9.07760833,9.354288 C9.17098333,9.354288 9.26155833,9.362304 9.35325833,9.36996 C9.38393333,10.475784 9.80415833,11.472432 10.4681333,12.189288 Z"></path>
        </g>
    </g>
</svg>