<?xml version="1.0" encoding="UTF-8"?>
<svg width="16px" height="13px" viewBox="0 0 16 13" version="1.1" xmlns="http://www.w3.org/2000/svg" xmlns:xlink="http://www.w3.org/1999/xlink">
    <!-- Generator: sketchtool 50.2 (55047) - http://www.bohemiancoding.com/sketch -->
    <title>F62CA922-E0ED-4579-A4F7-9E856A66737A</title>
    <desc>Created with sketchtool.</desc>
    <defs></defs>
    <g id="Symbols" stroke="none" stroke-width="1" fill="none" fill-rule="evenodd">
        <g id="icon/profile/industry" transform="translate(-2.000000, -2.000000)" fill="#712DC3">
            <path d="M17.327259,14.03843 C17.446769,14.03843 17.544543,14.138407 17.544543,14.261045 L17.544543,14.721439 C17.544543,14.843618 17.446769,14.943476 17.327259,14.943476 L2.592151,14.943476 C2.472622,14.943476 2.374848,14.843618 2.374848,14.721439 L2.374848,14.261045 C2.374848,14.138747 2.472622,14.03843 2.592151,14.03843 L2.741966,14.03843 C2.831114,14.03843 2.875251,14.024949 2.875251,13.94187 L2.875251,5.180716 C2.875251,4.960957 3.051305,4.780842 3.266423,4.780842 L6.534366,4.780842 C6.626706,4.780842 6.615971,4.637124 6.615971,4.637124 L6.615971,3.021325 C6.615971,3.014967 6.615838,2.956946 6.552701,2.956946 C6.433191,2.956946 6.335417,2.856748 6.335417,2.734569 L6.335417,2.340475 C6.335417,2.218058 6.433191,2.1182 6.552701,2.1182 L13.578768,2.1182 C13.698297,2.1182 13.796071,2.218058 13.796071,2.340475 L13.796071,2.734569 C13.796071,2.856748 13.698297,2.956946 13.578768,2.956946 C13.524694,2.956946 13.515574,2.975527 13.515574,2.992085 L13.515574,4.675663 C13.515574,4.675663 13.50976,4.780842 13.618497,4.780842 L16.644361,4.780842 C16.859479,4.780842 17.035514,4.960957 17.035514,5.180716 L17.035514,13.913871 C17.035514,13.913871 17.035514,14.03843 17.138741,14.03843 L17.327259,14.03843 Z M10.896386,6.695773 C10.800721,6.695773 10.722498,6.775792 10.722498,6.873491 L10.722498,8.202551 C10.722498,8.300352 10.800721,8.38049 10.896386,8.38049 L12.196879,8.38049 C12.292487,8.38049 12.370691,8.300352 12.370691,8.202551 L12.370691,6.873491 C12.370691,6.775792 12.292487,6.695773 12.196879,6.695773 L10.896386,6.695773 Z M10.722498,5.871324 C10.722498,5.969363 10.800721,6.049042 10.896386,6.049042 L12.196879,6.049042 C12.292487,6.049042 12.370691,5.969363 12.370691,5.871324 L12.370691,4.542264 C12.370691,4.444565 12.292487,4.364886 12.196879,4.364886 L10.896386,4.364886 C10.800721,4.364886 10.722498,4.444565 10.722498,4.542264 L10.722498,5.871324 Z M10.896386,8.944822 C10.800721,8.944822 10.722498,9.024739 10.722498,9.1222 L10.722498,10.451481 C10.722498,10.549299 10.800721,10.629437 10.896386,10.629437 L12.196879,10.629437 C12.292487,10.629437 12.370691,10.549299 12.370691,10.451481 L12.370691,9.1222 C12.370691,9.024739 12.292487,8.944822 12.196879,8.944822 L10.896386,8.944822 Z M11.089331,11.616865 L9.075635,11.616865 C8.980027,11.616865 8.901747,11.696663 8.901747,11.794481 L8.901747,13.852433 C8.901747,13.95003 8.980027,14.03027 9.075635,14.03027 L11.089331,14.03027 C11.18492,14.03027 11.2632,13.95003 11.2632,13.852433 L11.2632,11.794481 C11.2632,11.696663 11.18492,11.616865 11.089331,11.616865 Z M9.411213,5.871324 L9.411213,4.542264 C9.411213,4.444565 9.333009,4.364886 9.237401,4.364886 L7.936832,4.364886 C7.841167,4.364886 7.762963,4.444565 7.762963,4.542264 L7.762963,5.871324 C7.762963,5.969363 7.841167,6.049042 7.936832,6.049042 L9.237401,6.049042 C9.333009,6.049042 9.411213,5.969363 9.411213,5.871324 Z M7.936832,6.695773 C7.841167,6.695773 7.762963,6.775792 7.762963,6.873491 L7.762963,8.202551 C7.762963,8.300352 7.841167,8.38049 7.936832,8.38049 L9.237401,8.38049 C9.333009,8.38049 9.411213,8.300352 9.411213,8.202551 L9.411213,6.873491 C9.411213,6.775792 9.333009,6.695773 9.237401,6.695773 L7.936832,6.695773 Z M7.936832,8.944822 C7.841167,8.944822 7.762963,9.024739 7.762963,9.1222 L7.762963,10.451481 C7.762963,10.549299 7.841167,10.629437 7.936832,10.629437 L9.237401,10.629437 C9.333009,10.629437 9.411213,10.549299 9.411213,10.451481 L9.411213,9.1222 C9.411213,9.024739 9.333009,8.944822 9.237401,8.944822 L7.936832,8.944822 Z M14.027643,6.832572 L14.027643,8.161632 C14.027643,8.259331 14.105847,8.339129 14.201436,8.339129 L15.502005,8.339129 C15.597613,8.339129 15.675893,8.259331 15.675893,8.161632 L15.675893,6.832572 C15.675893,6.734652 15.597613,6.654514 15.502005,6.654514 L14.201436,6.654514 C14.105847,6.654514 14.027643,6.734652 14.027643,6.832572 Z M14.027643,9.163578 L14.027643,10.4924 C14.027643,10.590558 14.105847,10.670356 14.201436,10.670356 L15.502005,10.670356 C15.597613,10.670356 15.675893,10.590558 15.675893,10.4924 L15.675893,9.163578 C15.675893,9.065981 15.597613,8.986081 15.502005,8.986081 L14.201436,8.986081 C14.105847,8.986081 14.027643,9.065981 14.027643,9.163578 Z M14.027643,11.412746 L14.027643,12.741687 C14.027643,12.839386 14.105847,12.919524 14.201436,12.919524 L15.502005,12.919524 C15.597613,12.919524 15.675893,12.839386 15.675893,12.741687 L15.675893,11.412746 C15.675893,11.314809 15.597613,11.23513 15.502005,11.23513 L14.201436,11.23513 C14.105847,11.23513 14.027643,11.314809 14.027643,11.412746 Z M4.234891,6.832572 L4.234891,8.161632 C4.234891,8.259331 4.313171,8.339129 4.40876,8.339129 L5.709405,8.339129 C5.804937,8.339129 5.883141,8.259331 5.883141,8.161632 L5.883141,6.832572 C5.883141,6.734652 5.804937,6.654514 5.709405,6.654514 L4.40876,6.654514 C4.313171,6.654514 4.234891,6.734652 4.234891,6.832572 Z M4.234891,9.163578 L4.234891,10.4924 C4.234891,10.590558 4.313171,10.670356 4.40876,10.670356 L5.709405,10.670356 C5.804937,10.670356 5.883141,10.590558 5.883141,10.4924 L5.883141,9.163578 C5.883141,9.065981 5.804937,8.986081 5.709405,8.986081 L4.40876,8.986081 C4.313171,8.986081 4.234891,9.065981 4.234891,9.163578 Z M4.234891,11.412746 L4.234891,12.741687 C4.234891,12.839386 4.313171,12.919524 4.40876,12.919524 L5.709405,12.919524 C5.804937,12.919524 5.883141,12.839386 5.883141,12.741687 L5.883141,11.412746 C5.883141,11.314809 5.804937,11.23513 5.709405,11.23513 L4.40876,11.23513 C4.313171,11.23513 4.234891,11.314809 4.234891,11.412746 Z" id="Combined-shape-2954"></path>
        </g>
    </g>
</svg>