<?xml version="1.0" encoding="UTF-8"?>
<svg width="36px" height="34px" viewBox="0 0 36 34" version="1.1" xmlns="http://www.w3.org/2000/svg" xmlns:xlink="http://www.w3.org/1999/xlink">
    <!-- Generator: sketchtool 50.2 (55047) - http://www.bohemiancoding.com/sketch -->
    <title>4DABC87D-AEF1-4D7C-B4E3-C922726C186D</title>
    <desc>Created with sketchtool.</desc>
    <defs></defs>
    <g id="Page-1" stroke="none" stroke-width="1" fill="none" fill-rule="evenodd">
        <g id="company_assetment_newnavigation" transform="translate(-264.000000, -1149.000000)">
            <g id="form_assestment1" transform="translate(235.000000, 1111.000000)">
                <g id="icon/info" transform="translate(29.000000, 38.000000)">
                    <g id="icon/company/people-" transform="translate(1.000000, 1.000000)" stroke="#712DC3">
                        <path d="M31.0117316,1.55431223e-15 C32.6595336,1.55431223e-15 34,1.34561756 34,2.99996941 L34,22.9997038 C34,24.6540556 32.6595336,26.0000067 31.0117316,26.0000067 L13.4279203,26.0000067 L7.74321509,31.7067368 C7.12027281,32.3324685 6.04296658,31.8916365 6.04296658,30.999968 L6.04296658,26.0000067 L2.98826836,26.0000067 C1.34039225,26.0000067 4.21884749e-15,24.6540556 4.21884749e-15,22.9997038 L4.21884749e-15,2.99996941 C4.21884749e-15,1.34561756 1.34039225,1.55431223e-15 2.98826836,1.55431223e-15 L31.0117316,1.55431223e-15 Z" id="Combined-shape-4242"></path>
                    </g>
                    <path d="M18.5760338,12.2340784 C18.8553663,11.8880444 19.0778152,11.497661 19.2299489,11.0759809 C19.3801887,10.659642 19.4620947,10.2129365 19.4620947,9.74798717 C19.4620947,9.28305283 19.3801887,8.83634738 19.2299489,8.41999342 C19.0778152,7.99832832 18.8553663,7.6079449 18.5760338,7.26189596 C18.9453208,7.09426514 19.3574633,7 19.7922962,7 C21.368219,7 22.6502727,8.23279842 22.6502727,9.74798717 C22.6502727,11.2631909 21.368219,12.4959743 19.7922962,12.4959743 C19.3574633,12.4959743 18.9453208,12.4017092 18.5760338,12.2340784 Z M19.2871831,13.8333001 C19.4546072,13.8178468 19.6231887,13.8097301 19.7922962,13.8097301 C22.6803978,13.8097301 25.0299997,16.0689428 25.0299997,18.8458261 C25.0299997,19.2086487 24.7241719,19.5027565 24.3468713,19.5027565 L21.7243021,19.5027565 C21.800141,19.2971826 21.8418217,19.0761704 21.8418217,18.8458261 C21.8418217,18.6240037 21.8297927,18.4049719 21.8066114,18.1888808 C21.6888288,17.0916363 21.2789308,16.0765344 20.6535977,15.2164156 C20.2723693,14.6922186 19.8113567,14.2256789 19.2871831,13.8333001 Z M15.2377561,12.4959743 C13.6618509,12.4959743 12.3797796,11.2631909 12.3797796,9.74798717 C12.3797796,8.23279842 13.6618509,7 15.2377561,7 C16.166392,7 16.9926762,7.42819149 17.5150086,8.08993789 C17.8790878,8.55115144 18.0957327,9.1256692 18.0957327,9.74798717 C18.0957327,10.3703201 17.8790878,10.9448379 17.5150086,11.4060515 C16.9926762,12.0677829 16.166392,12.4959743 15.2377561,12.4959743 Z M10.6832336,19.5027565 C10.305898,19.5027565 10,19.2086487 10,18.8458261 C10,16.0689428 12.349672,13.8097301 15.2377561,13.8097301 C16.0530458,13.8097301 16.8253046,13.9898736 17.5140267,14.3106271 C18.0191398,14.5460274 18.4791003,14.8573139 18.8781442,15.2286582 C19.7079529,16.0010383 20.2737546,17.033979 20.4308682,18.1888808 C20.4601867,18.4040417 20.4754772,18.6232086 20.4754772,18.8458261 C20.4754772,19.2086487 20.1695792,19.5027565 19.7922962,19.5027565 L10.6832336,19.5027565 Z" id="icon/menu/employees" fill="#712DC3"></path>
                </g>
            </g>
        </g>
    </g>
</svg>