<?xml version="1.0" encoding="UTF-8"?>
<svg width="17px" height="14px" viewBox="0 0 17 14" version="1.1" xmlns="http://www.w3.org/2000/svg" xmlns:xlink="http://www.w3.org/1999/xlink">
    <!-- Generator: sketchtool 50.2 (55047) - http://www.bohemiancoding.com/sketch -->
    <title>FD756B21-EDF9-4FF7-93FC-BDDCAA583B2F</title>
    <desc>Created with sketchtool.</desc>
    <defs></defs>
    <g id="Symbols" stroke="none" stroke-width="1" fill="none" fill-rule="evenodd">
        <g id="icon/profile/legal-entity" fill="#712DC3" fill-rule="nonzero">
            <g id="Shape">
                <path d="M16.1925,12.8042727 C16.3298077,12.7928182 16.4651538,12.8920909 16.5004615,13.0142727 C16.524,13.0925455 16.5338077,13.125 16.5455769,13.2032727 C16.5789231,13.314 16.5004615,13.4476364 16.3749231,13.4571818 C11.2003846,13.7225455 6.06115385,13.7225455 0.886615385,13.4571818 C0.749307692,13.4457273 0.670846154,13.3235455 0.715961538,13.2128182 C0.7395,13.1345455 0.749307692,13.1020909 0.761076923,13.0352727 C0.794423077,12.9245455 0.931730769,12.8138182 1.06903846,12.8138182 C6.11803846,13.0257273 11.1435,13.0257273 16.1925,12.8042727 Z"></path>
                <path d="M0.704192308,4.85863636 C0.443307692,4.87009091 0.396230769,4.53790909 0.623769231,4.41572727 C3.17180769,2.99918182 5.68453846,1.55018182 8.20903846,0.0992727273 C8.42480769,-0.0229090909 8.78965385,-0.0229090909 9.00542308,0.0992727273 C11.5416923,1.54827273 14.0779615,3.01063636 16.6358077,4.42718182 C16.8633462,4.56081818 16.83,4.85863636 16.5671538,4.84718182 C11.2808077,4.725 5.9925,4.725 0.704192308,4.85863636 Z"></path>
                <path d="M15.9316154,11.8974545 C15.9198462,12.0520909 15.7845,12.1742727 15.6236538,12.1857273 C15.0096923,12.2086364 14.7017308,12.2181818 14.0779615,12.2410909 C13.9190769,12.2410909 13.7935385,12.1303636 13.7935385,11.9757273 C13.8739615,9.88336364 13.8955385,7.79290909 13.8621923,5.70054545 C13.8621923,5.54590909 13.9877308,5.42372727 14.1583846,5.42372727 C14.7841154,5.43518182 15.0901154,5.43518182 15.7158462,5.44663636 C15.8747308,5.44663636 16.0120385,5.56881818 16.0238077,5.72345455 C16.0571538,7.77954545 16.0218462,9.83945455 15.9316154,11.8974545 Z"></path>
                <path d="M11.8143462,12.0081818 C11.8143462,12.1628182 11.6770385,12.285 11.5181538,12.2964545 C10.9041923,12.3079091 10.5962308,12.3079091 9.97246154,12.3193636 C9.81357692,12.3193636 9.67626923,12.1971818 9.68803846,12.0425455 C9.69980769,9.91772727 9.71157692,7.79290909 9.69980769,5.66809091 C9.69980769,5.51345455 9.83711538,5.39127273 9.996,5.39127273 C10.6217308,5.39127273 10.9277308,5.39127273 11.5534615,5.40272727 C11.7123462,5.40272727 11.8496538,5.52490909 11.8496538,5.67954545 C11.8712308,7.77954545 11.8594615,9.89481818 11.8143462,12.0081818 Z"></path>
                <path d="M7.56173077,12.0291818 C7.56173077,12.1838182 7.43619231,12.306 7.27730769,12.306 C6.66334615,12.306 6.35538462,12.2945455 5.74142308,12.2830909 C5.58253846,12.2830909 5.44523077,12.1494545 5.44523077,11.9948182 C5.40011538,9.88145455 5.37657692,7.76809091 5.40011538,5.65281818 C5.40011538,5.49818182 5.53742308,5.376 5.69630769,5.376 C6.32203846,5.376 6.62803846,5.36454545 7.25376923,5.36454545 C7.41265385,5.36454545 7.54996154,5.48672727 7.54996154,5.64136364 C7.53819231,7.77954545 7.53819231,9.90436364 7.56173077,12.0291818 Z"></path>
                <path d="M3.44642308,11.9642727 C3.45819231,12.1189091 3.32088462,12.2410909 3.162,12.2296364 C2.54803846,12.2067273 2.24007692,12.1971818 1.61630769,12.1742727 C1.45742308,12.1628182 1.32011538,12.0406364 1.30834615,11.886 C1.21811538,9.828 1.18280769,7.77954545 1.21811538,5.71009091 C1.21811538,5.55545455 1.35542308,5.43327273 1.52607692,5.43327273 C2.15180769,5.42181818 2.45780769,5.41036364 3.08353846,5.41036364 C3.24242308,5.41036364 3.37973077,5.53254545 3.37973077,5.68718182 C3.34246154,7.77954545 3.366,9.87190909 3.44642308,11.9642727 Z"></path>
            </g>
        </g>
    </g>
</svg>