<?xml version="1.0" encoding="UTF-8"?>
<svg width="22px" height="16px" viewBox="0 0 22 16" version="1.1" xmlns="http://www.w3.org/2000/svg" xmlns:xlink="http://www.w3.org/1999/xlink">
    <!-- Generator: sketchtool 50.2 (55047) - http://www.bohemiancoding.com/sketch -->
    <title>F8BB736B-CA9A-47EA-8323-B170E1A35FF5</title>
    <desc>Created with sketchtool.</desc>
    <defs></defs>
    <g id="Symbols" stroke="none" stroke-width="1" fill="none" fill-rule="evenodd">
        <g id="icon/statistic/open-vacancies" transform="translate(-2.000000, -2.000000)" fill="#712DC3">
            <path d="M8.33226667,9.81224 C7.56474167,10.17228 6.95359167,10.6251 6.49911667,11.17048 L2.73204167,15.67202 L2.67619167,15.7398 C2.67619167,15.7095 2.67424167,15.66218 2.67056667,15.59788 C2.66691667,15.53336 2.66496667,15.48606 2.66496667,15.45554 L2.66496667,4.54392 C2.66496667,3.84678 2.91081667,3.24814 3.40269167,2.74822 C3.89451667,2.2481 4.48326667,1.99782 5.16886667,1.99782 L8.74571667,1.99782 C9.43131667,1.99782 10.0199917,2.2481 10.5118917,2.74822 C11.0037667,3.24814 11.2496167,3.84678 11.2496167,4.54392 L11.2496167,4.90764 L17.3303667,4.90764 C18.0160917,4.90764 18.6048417,5.15772 19.0965417,5.65784 C19.5884917,6.15796 19.8345167,6.7568 19.8345167,7.45394 L19.8345167,9.27258 L10.5342917,9.27258 C9.83384167,9.27258 9.09971667,9.4526 8.33226667,9.81224 Z M23.3722417,10.87516 C23.5697917,10.97366 23.6684417,11.13648 23.6683167,11.36382 C23.6683167,11.59892 23.5529667,11.84898 23.3220667,12.1142 L19.5662667,16.61512 C19.2457667,17.0016 18.7967917,17.32948 18.2193417,17.59838 C17.6417667,17.86728 17.1071667,18.00184 16.6153917,18.00184 L4.45346667,18.00184 C4.20004167,18.00184 3.97464167,17.95268 3.77719167,17.85418 C3.57981667,17.75566 3.48099167,17.59264 3.48099167,17.36532 C3.48099167,17.13062 3.59654167,16.88034 3.82761667,16.61512 L7.58341667,12.1142 C7.90379167,11.72734 8.35281667,11.40006 8.93026667,11.13074 C9.50774167,10.86164 10.0423917,10.72708 10.5342917,10.72708 L22.6960167,10.72708 C22.9493167,10.72708 23.1747167,10.77664 23.3722417,10.87516 Z"></path>
        </g>
    </g>
</svg>