<?xml version="1.0" encoding="UTF-8"?>
<svg width="20px" height="19px" viewBox="0 0 20 19" version="1.1" xmlns="http://www.w3.org/2000/svg" xmlns:xlink="http://www.w3.org/1999/xlink">
    <!-- Generator: sketchtool 50.2 (55047) - http://www.bohemiancoding.com/sketch -->
    <title>2E4BC5B1-D551-4BBD-ACCD-E4B8AB7F2290</title>
    <desc>Created with sketchtool.</desc>
    <defs></defs>
    <g id="Symbols" stroke="none" stroke-width="1" fill="none" fill-rule="evenodd">
        <g id="icon/statistic/price" transform="translate(-1.000000, -2.000000)" fill="#712DC3">
            <path d="M5.673778,5.61638 L4.582204,5.61638 L11.719796,2.115696 C12.274526,1.842302 12.948298,2.069012 13.224552,2.617868 L13.646798,3.46269 L5.673778,5.61638 Z M16.12182,3.52495 C16.615896,3.52495 17.06958,3.84934 17.204352,4.344956 L17.55468,5.61638 L14.724864,5.61638 L8.231872,5.61638 L13.952202,4.071562 L15.825326,3.56488 C15.924128,3.53826 16.023018,3.52495 16.12182,3.52495 Z M18.72486,6.39441 C19.344732,6.39441 19.847784,6.892292 19.845518,7.505674 L19.845518,10.539804 L19.607478,10.539804 L19.259328,10.539804 L18.911244,10.539804 L13.179628,10.539804 C13.103266,10.539804 13.026926,10.544116 12.95283,10.553114 C12.508122,10.604308 12.110604,10.80871 11.814088,11.11099 C11.47949,11.451176 11.272822,11.915662 11.272822,12.426854 L11.272822,13.191376 L11.272822,13.53605 L11.272822,13.880526 L11.272822,14.898598 C11.272822,15.941046 12.128534,16.787892 13.181894,16.787892 L19.845518,16.787892 L19.845518,19.888594 C19.845518,20.501976 19.342466,20.999836 18.722594,20.999836 L2.122934,20.999836 C1.503062,20.999836 1.00001,20.501976 1.00001,19.888594 L1.00001,8.906106 L1.00001,7.639192 L1.00001,7.505674 C1.00001,7.405728 1.015696,7.307828 1.040402,7.214636 C1.080816,7.065542 1.152712,6.929978 1.247004,6.812212 C1.453672,6.556616 1.770318,6.39441 2.125178,6.39441 L2.794484,6.39441 L2.994376,6.39441 L4.072398,6.39441 L5.3526,6.39441 L15.115606,6.39441 L17.77259,6.39441 L18.120674,6.39441 L18.468802,6.39441 L18.72486,6.39441 Z M20.633844,11.602316 C20.858464,11.804452 20.999946,12.097932 20.999946,12.422344 L20.999946,14.896332 C20.999946,15.220744 20.858464,15.514224 20.633844,15.71658 C20.521556,15.81877 20.389028,15.89885 20.240836,15.94758 C20.126282,15.985486 20.004996,16.007596 19.877022,16.007596 L19.847784,16.007596 L13.181894,16.007596 C12.562022,16.007596 12.058904,15.509714 12.058904,14.896332 L12.058904,13.664882 L12.058904,13.320384 L12.058904,12.975908 L12.058904,12.422344 C12.058904,11.808962 12.562022,11.31108 13.181894,11.31108 L18.221742,11.31108 L19.477238,11.31108 L19.825322,11.31108 L19.847784,11.31108 L19.877022,11.31108 C20.004996,11.31108 20.126282,11.333212 20.240836,11.371096 C20.389028,11.422092 20.521556,11.499906 20.633844,11.602316 Z M15.52661,13.880526 L15.52661,13.511476 C15.52661,13.204884 15.275084,12.955844 14.965148,12.955844 L14.68665,12.955844 L14.592336,12.955844 C14.46203,12.955844 14.34301,13.00255 14.246452,13.075854 C14.113946,13.17602 14.03083,13.333716 14.03083,13.511476 L14.03083,13.880526 C14.03083,14.187316 14.2824,14.436158 14.592336,14.436158 L14.965148,14.436158 C15.275084,14.436158 15.52661,14.187316 15.52661,13.880526 Z"></path>
        </g>
    </g>
</svg>