<?xml version="1.0" encoding="UTF-8"?>
<svg width="19px" height="25px" viewBox="0 0 19 25" version="1.1" xmlns="http://www.w3.org/2000/svg" xmlns:xlink="http://www.w3.org/1999/xlink">
    <!-- Generator: sketchtool 50.2 (55047) - http://www.bohemiancoding.com/sketch -->
    <title>0847EE94-3312-48C0-830C-DEBAFC0FBE0D</title>
    <desc>Created with sketchtool.</desc>
    <defs></defs>
    <g id="Symbols" stroke="none" stroke-width="1" fill="none" fill-rule="evenodd">
        <g id="icon/statistic/ratings" transform="translate(-2.000000, -2.000000)" fill="#712DC3">
            <path d="M2.678235,24.164685 C2.460356,24.250554 2.360697,24.149837 2.455848,23.938746 L5.707358,16.722821 C7.236053,18.056908 9.241791,18.873055 11.43882,18.88915 C11.460762,18.88915 11.482198,18.89089 11.50414,18.89089 C11.526082,18.89089 11.547518,18.88915 11.56946,18.88915 C13.766558,18.873055 15.772227,18.056908 17.30083,16.722821 L20.552271,23.938746 C20.647583,24.149837 20.547832,24.250554 20.329953,24.164685 L16.959487,22.832802 C16.741608,22.746933 16.49859,22.852348 16.417101,23.068891 L15.154631,26.415172 C15.072912,26.631715 14.929277,26.63592 14.834264,26.424829 L11.50414,19.034411 L8.173786,26.424829 C8.078704,26.63592 7.935368,26.631715 7.853718,26.415172 L6.591179,23.068891 C6.509598,22.852348 6.266672,22.746933 6.048793,22.832802 L2.678235,24.164685 Z M6.007485,16.056633 C4.447717,14.617363 3.472126,12.574255 3.472126,10.306194 C3.472126,5.948538 7.067877,2.415903 11.503841,2.415903 C15.939874,2.415903 19.535993,5.948538 19.535993,10.306194 C19.535993,12.574255 18.560195,14.617363 17.000634,16.056633 C15.650097,17.302879 13.86187,18.096029 11.885825,18.187089 C11.759325,18.193034 11.631951,18.196253 11.503979,18.196253 C11.37603,18.196253 11.248794,18.193034 11.122156,18.187089 C9.146111,18.095768 7.357884,17.302879 6.007485,16.056633 Z M11.50414,3.844559 C7.877063,3.844559 4.926324,6.743138 4.926623,10.306194 C4.926623,11.977841 5.576373,13.503502 6.640744,14.651989 C7.619141,15.707705 8.948104,16.443667 10.444714,16.682975 C10.789898,16.737669 11.143569,16.767858 11.504278,16.767858 C11.864849,16.767858 12.218612,16.737669 12.563865,16.682975 C14.060475,16.443667 15.389438,15.707705 16.367881,14.651989 C17.432045,13.503502 18.081864,11.977841 18.081864,10.306194 C18.081864,6.743138 15.131217,3.844559 11.50414,3.844559 Z M10.093964,15.904441 C8.841177,15.601043 7.746952,14.903187 6.955867,13.9519 C6.129546,12.958331 5.633413,11.689291 5.633413,10.306194 C5.633413,7.121037 8.261784,4.539196 11.50414,4.539196 C14.746427,4.539196 17.374867,7.121037 17.374867,10.306194 C17.374867,11.689291 16.878573,12.958331 16.052252,13.9519 C15.261236,14.903187 14.167011,15.601043 12.914293,15.904441 C12.462504,16.013829 11.990452,16.073221 11.50414,16.073221 C11.017759,16.073221 10.545776,16.013829 10.093964,15.904441 Z M9.743168,7.001992 C9.685921,7.032181 9.65701,7.096532 9.672903,7.158389 L9.893887,8.014875 C9.904536,8.056461 9.93416,8.090623 9.973996,8.107936 C10.01374,8.125249 10.059556,8.123277 10.097966,8.102977 L11.385483,7.42023 L11.385483,13.250593 L11.385483,13.353775 L11.385483,14.459226 C11.385483,14.535931 11.448871,14.598281 11.526887,14.598281 L12.632589,14.598281 C12.710743,14.598281 12.773993,14.535931 12.773993,14.459226 L12.773993,13.854402 L12.773993,12.749966 L12.773993,6.15293 C12.773993,6.076457 12.710743,6.014107 12.632589,6.014107 L11.656561,6.014107 C11.633515,6.014107 11.610607,6.019791 11.589999,6.030695 L9.743168,7.001992 Z"></path>
        </g>
    </g>
</svg>