<?xml version="1.0" encoding="UTF-8"?>
<svg width="17px" height="16px" viewBox="0 0 17 16" version="1.1" xmlns="http://www.w3.org/2000/svg" xmlns:xlink="http://www.w3.org/1999/xlink">
    <!-- Generator: sketchtool 50.2 (55047) - http://www.bohemiancoding.com/sketch -->
    <title>7560A091-056A-4760-8862-C12D4B0F812D</title>
    <desc>Created with sketchtool.</desc>
    <defs></defs>
    <g id="Symbols" stroke="none" stroke-width="1" fill="none" fill-rule="evenodd">
        <g id="icon/profile/register" fill="#712DC3">
            <path d="M9.57664645,14.006437 L12.0438487,10.8979182 L12.0438487,15.2709835 C12.0438487,15.6645773 11.7008145,16 11.2573287,16 L0.802235771,16 C0.359202014,16 -1.42108547e-14,15.6645773 -1.42108547e-14,15.2709835 L-1.42108547e-14,3.04227588 C-1.42108547e-14,2.64879088 0.358792973,2.33049121 0.802235771,2.33049121 L2.77023654,2.33049121 L2.77023654,3.69790281 C2.77023654,4.3430818 3.34452919,4.85399739 4.07247032,4.85399739 L7.98913932,4.85399739 C8.71591791,4.85399739 9.31031813,4.34337203 9.31031813,3.69790281 L9.31031813,2.33049121 L11.2577377,2.33049121 C11.7008145,2.33049121 12.0442577,2.64859135 12.0442577,3.04227588 L12.0442577,5.43881046 L9.50037119,8.67499011 L2.71658767,8.69013601 C2.39258466,8.69013601 2.12985158,8.92706502 2.12985158,9.21460128 C2.12985158,9.50202871 2.39258466,9.73924794 2.71658767,9.73924794 L8.66384062,9.73924794 L7.57751556,11.1159285 L2.71658767,11.1159285 C2.39258466,11.1159285 2.12985158,11.3528756 2.12985158,11.6403031 C2.12985158,11.927531 2.39258466,12.1645507 2.71658767,12.1645507 L6.73254584,12.1645507 L6.69099595,12.2175341 C6.55536678,12.3884379 6.49125509,12.6002809 6.51463497,12.8115254 L6.61353662,13.8432059 C6.63814363,14.1052391 6.79390189,14.3465577 7.04203868,14.4999212 C7.21112305,14.6055072 7.41168199,14.6615742 7.61908698,14.6615742 C7.71112106,14.6615742 7.80227247,14.6504188 7.89066824,14.6283983 L9.01654104,14.3551192 C9.24248202,14.3004488 9.44144785,14.176452 9.57664645,14.006437 Z M2.71658767,6.2643254 C2.39258466,6.2643254 2.12985158,6.50107302 2.12985158,6.78850045 C2.12985158,7.07601858 2.39258466,7.31305642 2.71658767,7.31305642 L9.34422542,7.31305642 C9.66745341,7.31305642 9.93053094,7.07601858 9.93053094,6.78850045 C9.93053094,6.50107302 9.66745341,6.2643254 9.34422542,6.2643254 L2.71658767,6.2643254 Z M4.08375122,4.16630106 C3.78678793,4.16630106 3.54668124,3.95246274 3.54668124,3.68894225 L3.54668124,1.69258588 C3.54668124,1.42886586 3.78678793,1.2154266 4.08375122,1.2154266 L4.65279094,1.2154266 C4.65720427,0.543783096 5.27138912,-9.76996262e-15 6.02998674,-9.76996262e-15 C6.78821838,-9.76996262e-15 7.40324284,0.54418215 7.40724713,1.2154266 L7.99682498,1.2154266 C8.29301325,1.2154266 8.53389496,1.42886586 8.53389496,1.69258588 L8.53389496,3.6893413 C8.53389496,3.9527711 8.29301325,4.16630106 7.99682498,4.16630106 L4.08375122,4.16630106 Z M6.03039578,0.677030724 C5.69304513,0.677030724 5.41946172,0.917641911 5.41545744,1.21573496 L6.64417159,1.21573496 C6.64057634,0.917641911 6.36733739,0.677030724 6.03039578,0.677030724 Z M16.9943349,3.21468517 C17.0117083,3.30251324 16.9886729,3.39324352 16.9314073,3.46654242 L9.99029389,12.29671 L8.38700641,11.304572 L15.3273663,2.47409609 C15.4008213,2.38008269 15.5194215,2.3296931 15.6389259,2.3296931 C15.714383,2.3296931 15.7902493,2.34940998 15.8564277,2.39063947 L16.836187,2.99636657 C16.9193083,3.04815285 16.9762295,3.1256418 16.9943349,3.21468517 Z M7.29383531,12.7462801 C7.28823792,12.699482 7.30233905,12.6525751 7.33262956,12.6138306 L7.75753637,12.0733306 L9.36157734,13.0660853 L8.93667053,13.6068755 C8.90597098,13.6453116 8.86155781,13.6730096 8.81032012,13.6851626 L7.67841936,13.9603282 C7.65906529,13.9655159 7.63887161,13.9678014 7.61908698,13.9678014 C7.57392031,13.9678014 7.5283446,13.9548503 7.48955036,13.9308526 C7.43512646,13.896788 7.39915244,13.8432059 7.39433007,13.7833479 L7.29383531,12.7462801 Z"></path>
        </g>
    </g>
</svg>