<?xml version="1.0" encoding="UTF-8"?>
<svg width="21px" height="18px" viewBox="0 0 21 18" version="1.1" xmlns="http://www.w3.org/2000/svg" xmlns:xlink="http://www.w3.org/1999/xlink">
    <!-- Generator: sketchtool 50.2 (55047) - http://www.bohemiancoding.com/sketch -->
    <title>48FAEE78-F0E0-4EA9-B1F7-D3E779855CEE</title>
    <desc>Created with sketchtool.</desc>
    <defs></defs>
    <g id="Symbols" stroke="none" stroke-width="1" fill="none" fill-rule="evenodd">
        <g id="icon/statistic/reviews" transform="translate(-1.000000, -2.000000)" fill="#712DC3">
            <path d="M21.48522,2.50778 C21.828058,2.846734 21.999523,3.254086 21.999385,3.730254 L21.999385,15.500188 C21.999385,15.976356 21.828058,16.383708 21.48522,16.722662 C21.142589,17.061594 20.730774,17.23117 20.249706,17.23117 L14.299928,17.23117 C14.299928,17.49803 14.35821,17.777386 14.474912,18.069634 C14.59143,18.361464 14.708132,18.617676 14.824834,18.837632 C14.941352,19.05739 14.999933,19.214272 14.999933,19.308058 C14.999933,19.495454 14.930726,19.657858 14.792059,19.794676 C14.653622,19.93189 14.489448,20.000508 14.299928,20.000508 L8.700187,20.000508 C8.51069,20.000508 8.346608,19.93189 8.208125,19.794676 C8.069527,19.657858 8.000297,19.495454 8.000297,19.308058 C8.000297,19.2071 8.058648,19.04859 8.175166,18.83211 C8.291868,18.615828 8.408501,18.363312 8.525157,18.07476 C8.641836,17.786384 8.700187,17.505004 8.700187,17.23117 L2.750432,17.23117 C2.269226,17.23117 1.857365,17.061594 1.514527,16.722662 C1.171804,16.383708 1.000546,15.976356 1.000546,15.500188 L1.000546,3.730254 C1.000546,3.254086 1.171804,2.846734 1.514527,2.50778 C1.857365,2.168848 2.269226,1.999272 2.750432,1.999272 L20.249384,1.999272 C20.730774,1.999272 21.142589,2.168848 21.48522,2.50778 Z M20.599421,12.730872 L20.599421,3.730254 C20.599421,3.636446 20.564829,3.555354 20.495599,3.486736 C20.426507,3.418338 20.344351,3.384128 20.249706,3.384128 L2.750432,3.384128 C2.655695,3.384128 2.573677,3.418338 2.504401,3.486736 C2.435056,3.555354 2.40051,3.636446 2.40051,3.730254 L2.40051,12.730872 C2.40051,12.824658 2.435171,12.905552 2.504401,12.97417 C2.573677,13.042568 2.655695,13.076976 2.750432,13.076976 L20.249384,13.076976 C20.344167,13.076976 20.426277,13.042568 20.495599,12.97417 C20.564829,12.905772 20.599421,12.824658 20.599421,12.730872 Z"></path>
        </g>
    </g>
</svg>