<?xml version="1.0" encoding="UTF-8"?>
<svg width="16px" height="16px" viewBox="0 0 16 16" version="1.1" xmlns="http://www.w3.org/2000/svg" xmlns:xlink="http://www.w3.org/1999/xlink">
    <!-- Generator: sketchtool 50.2 (55047) - http://www.bohemiancoding.com/sketch -->
    <title>EC43B106-6E88-4FDF-B9A1-D5F735612BF1</title>
    <desc>Created with sketchtool.</desc>
    <defs></defs>
    <g id="Symbols" stroke="none" stroke-width="1" fill="none" fill-rule="evenodd">
        <g id="icon/profile/services" transform="translate(-1.000000, -1.000000)" fill="#712DC3">
            <path d="M14.65497,3.387312 C16.101432,4.85883 16.997868,6.899346 16.997256,9.146628 L16.997256,14.544342 C16.997562,15.084126 16.780518,15.579306 16.432614,15.932124 C16.085934,16.286274 15.600042,16.507386 15.069942,16.507026 L10.73394,16.507026 L10.73394,16.997706 L8.42121,16.997706 C7.78266,16.997706 7.264836,16.470342 7.264836,15.820128 C7.264836,15.169536 7.78266,14.642262 8.42121,14.642262 L10.73394,14.642262 L10.73394,15.132942 L15.070554,15.132942 C15.232122,15.132582 15.372252,15.068358 15.479244,14.960538 C15.585084,14.85153 15.648318,14.708718 15.648624,14.544162 L15.648624,9.146628 C15.648318,7.274484 14.905692,5.58585 13.701348,4.35861 C12.49578,3.13128 10.837638,2.375298 8.99982,2.375118 C7.161372,2.375676 5.503536,3.131838 4.298274,4.35861 C3.09393,5.58585 2.351016,7.274664 2.35071,9.146628 L2.35071,12.28698 L1.001772,12.28698 L1.001772,9.146628 C1.001466,6.899346 1.897884,4.85883 3.344364,3.387312 C4.78962,1.914102 6.793218,1.001142 8.99982,1.00152 C11.205864,1.001142 13.209786,1.914102 14.65497,3.387312 Z M12.854124,7.9695 L14.781366,7.9695 L14.781366,14.053644 L12.854124,14.053644 C12.005982,14.053644 11.312262,13.170456 11.312262,12.0906 L11.312262,9.931896 C11.312262,8.85222 12.006288,7.968942 12.854124,7.9695 Z M5.145264,7.968942 C5.993046,7.968942 6.687072,8.85222 6.687072,9.931626 L6.687072,12.09051 C6.687072,13.169898 5.993046,14.053374 5.145264,14.053374 L3.21795,14.053374 L3.21795,7.968942 L5.145264,7.968942 Z"></path>
        </g>
    </g>
</svg>