<?xml version="1.0" encoding="UTF-8"?>
<svg width="16px" height="16px" viewBox="0 0 16 16" version="1.1" xmlns="http://www.w3.org/2000/svg" xmlns:xlink="http://www.w3.org/1999/xlink">
    <!-- Generator: sketchtool 50.2 (55047) - http://www.bohemiancoding.com/sketch -->
    <title>DE64BE54-E3CB-46B2-8190-38F336BC8551</title>
    <desc>Created with sketchtool.</desc>
    <defs></defs>
    <g id="Symbols" stroke="none" stroke-width="1" fill="none" fill-rule="evenodd">
        <g id="icon/profile/website" fill="#712DC3" fill-rule="nonzero">
            <path d="M6.44109823,0 C4.30115146,0.430493269 2.472985,1.72914799 1.3108946,3.51569517 L4.25154994,3.51569517 C4.75465002,1.92286996 5.527015,0.674439458 6.44109823,0 Z M9.55890157,0 C10.4729848,0.674439458 11.2382639,1.92286996 11.7484499,3.51569517 L14.6820193,3.51569517 C13.527015,1.72914799 11.6917626,0.430493269 9.55890157,0 Z M8.39681134,0.3013453 L8.39681134,3.51569517 L10.968999,3.51569517 C10.3950399,1.77937221 9.49512844,0.538116596 8.39681134,0.3013453 Z M7.59610275,0.308520174 C6.51904336,0.566816151 5.63330374,1.79372197 5.06643054,3.51569517 L7.59610275,3.51569517 L7.59610275,0.308520174 Z M0.843224086,4.33363238 C0.354295828,5.32376677 0.0566873345,6.42152466 0,7.59103149 L3.5996457,7.59103149 C3.62798932,6.42869954 3.77679367,5.33094164 4.02480066,4.33363238 L0.843224086,4.33363238 Z M4.83968105,4.33363238 C4.59167406,5.32376677 4.44995561,6.43587441 4.421612,7.59103149 L7.59610275,7.59103149 L7.59610275,4.33363238 L4.83968105,4.33363238 Z M8.39681134,4.33363238 L8.39681134,7.59103149 L11.6138175,7.59103149 C11.5854739,6.43587441 11.4437554,5.32376677 11.1957485,4.33363238 L8.39681134,4.33363238 Z M11.9751991,4.33363238 C12.2161204,5.33094164 12.3720105,6.42869954 12.4003543,7.59103149 L16,7.59103149 C15.9433126,6.42152466 15.6457041,5.32376677 15.1567758,4.33363238 L11.9751991,4.33363238 Z M0,8.40896871 C0.0566873345,9.57847534 0.354295828,10.6834081 0.843224086,11.6663678 L4.01771476,11.6663678 C3.77679367,10.6762332 3.62798932,9.57130046 3.5996457,8.40896871 L0,8.40896871 Z M4.421612,8.40896871 C4.44995561,9.57130046 4.59167406,10.6762332 4.83968105,11.6663678 L7.59610275,11.6663678 L7.59610275,8.40896871 L4.421612,8.40896871 Z M8.39681134,8.40896871 L8.39681134,11.6663678 L11.1957485,11.6663678 C11.4437554,10.6762332 11.5925598,9.57130046 11.6138175,8.40896871 L8.39681134,8.40896871 Z M12.4003543,8.40896871 C12.3720105,9.57130046 12.2232063,10.6762332 11.982285,11.6663678 L15.1567758,11.6663678 C15.6457041,10.6834081 15.9433126,9.57847534 16,8.40896871 L12.4003543,8.40896871 Z M1.3108946,12.484305 C2.46589909,14.270852 4.29406556,15.5695068 6.42692643,16 C5.5199291,15.3255605 4.75465002,14.07713 4.25154994,12.484305 L1.3108946,12.484305 Z M5.06643054,12.484305 C5.63330374,14.213453 6.51195746,15.4475337 7.59610275,15.6986547 L7.59610275,12.484305 L5.06643054,12.484305 Z M8.39681134,12.484305 L8.39681134,15.7058296 C9.50221434,15.4690583 10.4021258,14.2278028 10.968999,12.484305 L8.39681134,12.484305 Z M11.7484499,12.484305 C11.2453498,14.07713 10.4800707,15.3255605 9.57307337,16 C11.7059344,15.5695068 13.5341009,14.270852 14.6891052,12.484305 L11.7484499,12.484305 Z"></path>
        </g>
    </g>
</svg>